G04*
G04 #@! TF.GenerationSoftware,Altium Limited,Altium Designer,21.9.1 (22)*
G04*
G04 Layer_Color=16711935*
%FSLAX44Y44*%
%MOMM*%
G71*
G04*
G04 #@! TF.SameCoordinates,043B7ADD-777D-4B4F-A2BF-0A1D89707C51*
G04*
G04*
G04 #@! TF.FilePolarity,Positive*
G04*
G01*
G75*
%ADD12C,0.2000*%
%ADD13C,0.1000*%
%ADD14C,0.1270*%
%ADD69C,0.1016*%
G36*
X740670Y770100D02*
X721670D01*
Y792100D01*
X740670D01*
Y770100D01*
D02*
G37*
G36*
X786940Y770050D02*
X767940D01*
Y792050D01*
X786940D01*
Y770050D01*
D02*
G37*
G36*
X810966Y767921D02*
X802738Y763170D01*
X800238Y767501D01*
X808466Y772251D01*
X810966Y767921D01*
D02*
G37*
G36*
X816809Y757801D02*
X808582Y753051D01*
X806081Y757382D01*
X814308Y762132D01*
X816809Y757801D01*
D02*
G37*
G36*
X658151Y733041D02*
X648651Y716587D01*
X629599Y727587D01*
X639099Y744041D01*
X658151Y733041D01*
D02*
G37*
G36*
X879141Y725547D02*
X860089Y714547D01*
X850589Y731001D01*
X869641Y742001D01*
X879141Y725547D01*
D02*
G37*
G36*
X808583Y712419D02*
X803581D01*
Y721919D01*
X808583D01*
Y712419D01*
D02*
G37*
G36*
X796897D02*
X791897D01*
Y721920D01*
X796897D01*
Y712419D01*
D02*
G37*
G36*
X634991Y693034D02*
X625491Y676579D01*
X606439Y687579D01*
X615939Y704034D01*
X634991Y693034D01*
D02*
G37*
G36*
X902106Y685353D02*
X883054Y674353D01*
X873554Y690807D01*
X892606Y701807D01*
X902106Y685353D01*
D02*
G37*
G36*
X760816Y673493D02*
X756224D01*
Y683286D01*
X760816D01*
Y673493D01*
D02*
G37*
G36*
X792816Y673459D02*
X788302D01*
Y683286D01*
X792816D01*
Y673459D01*
D02*
G37*
G36*
X752816Y673455D02*
X748214D01*
Y683286D01*
X752816D01*
Y673455D01*
D02*
G37*
G36*
X784816Y673454D02*
X780282D01*
Y683286D01*
X784816D01*
Y673454D01*
D02*
G37*
G36*
X768816Y673452D02*
X764248D01*
Y683286D01*
X768816D01*
Y673452D01*
D02*
G37*
G36*
X776816Y673448D02*
X772263D01*
Y683286D01*
X776816D01*
Y673448D01*
D02*
G37*
G36*
X744816Y673438D02*
X740207D01*
Y683286D01*
X744816D01*
Y673438D01*
D02*
G37*
G36*
X736816Y673435D02*
X732197D01*
Y683286D01*
X736816D01*
Y673435D01*
D02*
G37*
G36*
X807496Y664095D02*
X797673D01*
Y668606D01*
X807496D01*
Y664095D01*
D02*
G37*
G36*
X727470Y664094D02*
X717458D01*
Y668606D01*
X727470D01*
Y664094D01*
D02*
G37*
G36*
X807496Y656099D02*
X797720D01*
Y660606D01*
X807496D01*
Y656099D01*
D02*
G37*
G36*
X727470Y656065D02*
X717484D01*
Y660606D01*
X727470D01*
Y656065D01*
D02*
G37*
G36*
Y648065D02*
X717419D01*
Y652606D01*
X727470D01*
Y648065D01*
D02*
G37*
G36*
X807496Y648054D02*
X797662D01*
Y652606D01*
X807496D01*
Y648054D01*
D02*
G37*
G36*
X700971Y640761D02*
X691471D01*
Y645763D01*
X700971D01*
Y640761D01*
D02*
G37*
G36*
X684881Y640321D02*
X675381D01*
Y645323D01*
X684881D01*
Y640321D01*
D02*
G37*
G36*
X807496Y640036D02*
X797630D01*
Y644606D01*
X807496D01*
Y640036D01*
D02*
G37*
G36*
X727470Y640035D02*
X717532D01*
Y644606D01*
X727470D01*
Y640035D01*
D02*
G37*
G36*
X605141Y639283D02*
X595640D01*
Y644283D01*
X605141D01*
Y639283D01*
D02*
G37*
G36*
X638451Y638189D02*
X628941D01*
Y643183D01*
X638451D01*
Y638189D01*
D02*
G37*
G36*
X727470Y632026D02*
X717504D01*
Y636606D01*
X727470D01*
Y632026D01*
D02*
G37*
G36*
X807496Y632026D02*
X797637D01*
Y636606D01*
X807496D01*
Y632026D01*
D02*
G37*
G36*
X844403Y630299D02*
X839401D01*
Y639799D01*
X844403D01*
Y630299D01*
D02*
G37*
G36*
X832717D02*
X827717D01*
Y639800D01*
X832717D01*
Y630299D01*
D02*
G37*
G36*
X700971Y629077D02*
X691470D01*
Y634077D01*
X700971D01*
Y629077D01*
D02*
G37*
G36*
X684881Y628637D02*
X675380D01*
Y633637D01*
X684881D01*
Y628637D01*
D02*
G37*
G36*
X605141Y627597D02*
X595641D01*
Y632599D01*
X605141D01*
Y627597D01*
D02*
G37*
G36*
X638451Y626494D02*
X628949D01*
Y631499D01*
X638451D01*
Y626494D01*
D02*
G37*
G36*
X807496Y624005D02*
X797662D01*
Y628606D01*
X807496D01*
Y624005D01*
D02*
G37*
G36*
X727470Y624001D02*
X717461D01*
Y628606D01*
X727470D01*
Y624001D01*
D02*
G37*
G36*
Y616005D02*
X717505D01*
Y620606D01*
X727470D01*
Y616005D01*
D02*
G37*
G36*
X807496Y615997D02*
X797649D01*
Y620606D01*
X807496D01*
Y615997D01*
D02*
G37*
G36*
X845113Y613579D02*
X840111D01*
Y623079D01*
X845113D01*
Y613579D01*
D02*
G37*
G36*
X833427D02*
X828427D01*
Y623080D01*
X833427D01*
Y613579D01*
D02*
G37*
G36*
X807496Y608007D02*
X797621D01*
Y612606D01*
X807496D01*
Y608007D01*
D02*
G37*
G36*
X727470Y607961D02*
X717455D01*
Y612606D01*
X727470D01*
Y607961D01*
D02*
G37*
G36*
X744816Y593321D02*
X740228D01*
Y603260D01*
X744816D01*
Y593321D01*
D02*
G37*
G36*
X792816Y593274D02*
X788290D01*
Y603260D01*
X792816D01*
Y593274D01*
D02*
G37*
G36*
X768816Y593272D02*
X764247D01*
Y603260D01*
X768816D01*
Y593272D01*
D02*
G37*
G36*
X776816Y593268D02*
X772262D01*
Y603260D01*
X776816D01*
Y593268D01*
D02*
G37*
G36*
X784816Y593263D02*
X780280D01*
Y603260D01*
X784816D01*
Y593263D01*
D02*
G37*
G36*
X736816D02*
X732182D01*
Y603260D01*
X736816D01*
Y593263D01*
D02*
G37*
G36*
X752816Y593251D02*
X748211D01*
Y603260D01*
X752816D01*
Y593251D01*
D02*
G37*
G36*
X760816Y593228D02*
X756226D01*
Y603260D01*
X760816D01*
Y593228D01*
D02*
G37*
G36*
X898946Y591277D02*
X889446Y574823D01*
X870394Y585823D01*
X879894Y602277D01*
X898946Y591277D01*
D02*
G37*
G36*
X635041Y584747D02*
X615989Y573747D01*
X606489Y590201D01*
X625541Y601201D01*
X635041Y584747D01*
D02*
G37*
G36*
X762310Y554463D02*
X752809D01*
Y559463D01*
X762310D01*
Y554463D01*
D02*
G37*
G36*
X762309Y542777D02*
X752809D01*
Y547779D01*
X762309D01*
Y542777D01*
D02*
G37*
G36*
X875841Y551433D02*
X866341Y534979D01*
X847289Y545979D01*
X856788Y562433D01*
X875841Y551433D01*
D02*
G37*
G36*
X658261Y544689D02*
X639208Y533689D01*
X629709Y550143D01*
X648761Y561143D01*
X658261Y544689D01*
D02*
G37*
G36*
X679239Y513801D02*
X674237D01*
Y523301D01*
X679239D01*
Y513801D01*
D02*
G37*
G36*
X690923Y513800D02*
X685923D01*
Y523301D01*
X690923D01*
Y513800D01*
D02*
G37*
G36*
X785430Y487510D02*
X766430D01*
Y509510D01*
X785430D01*
Y487510D01*
D02*
G37*
G36*
X739220Y487430D02*
X720220D01*
Y509430D01*
X739220D01*
Y487430D01*
D02*
G37*
D12*
X778440Y755050D02*
G03*
X778440Y755050I-1000J0D01*
G01*
X776930Y524510D02*
G03*
X776930Y524510I-1000J0D01*
G01*
X644282Y600474D02*
G03*
X644282Y600474I-1000J0D01*
G01*
X863153Y601550D02*
G03*
X863153Y601550I-1000J0D01*
G01*
X866313Y675080D02*
G03*
X866313Y675080I-1000J0D01*
G01*
X700210Y776270D02*
G03*
X700210Y776270I-1000J0D01*
G01*
X644232Y677306D02*
G03*
X644232Y677306I-1000J0D01*
G01*
X843348Y715274D02*
G03*
X843348Y715274I-1000J0D01*
G01*
X667392Y717314D02*
G03*
X667392Y717314I-1000J0D01*
G01*
X730720Y524430D02*
G03*
X730720Y524430I-1000J0D01*
G01*
X732170Y755100D02*
G03*
X732170Y755100I-1000J0D01*
G01*
X667502Y560416D02*
G03*
X667502Y560416I-1000J0D01*
G01*
X840048Y561706D02*
G03*
X840048Y561706I-1000J0D01*
G01*
X693692Y526688D02*
G03*
X693692Y526688I-1000J0D01*
G01*
D13*
X815309Y514358D02*
X817338Y517874D01*
X815309Y514358D02*
X818824Y512328D01*
X817338Y517874D02*
X820854Y515844D01*
X821658Y525357D02*
X825174Y523327D01*
X823688Y528873D02*
X827205Y526843D01*
X821658Y525357D02*
X823688Y528873D01*
X818824Y512328D02*
X820854Y515844D01*
X829823Y505978D02*
X831853Y509495D01*
X826307Y508008D02*
X829823Y505978D01*
X826307Y508008D02*
X828337Y511525D01*
X831853Y509495D01*
X840822Y499628D02*
X842852Y503144D01*
X837306Y501658D02*
X840822Y499628D01*
X837306Y501658D02*
X839335Y505174D01*
X842852Y503144D01*
X825174Y523327D02*
X827205Y526843D01*
X832657Y519007D02*
X836173Y516977D01*
X832657Y519007D02*
X834687Y522523D01*
X838203Y520493D01*
X836173Y516977D02*
X838203Y520493D01*
X843655Y512657D02*
X847172Y510627D01*
X843655Y512657D02*
X845686Y516173D01*
X849202Y514143D01*
X847172Y510627D02*
X849202Y514143D01*
X667310Y752770D02*
Y787070D01*
Y752770D02*
X692710D01*
Y787070D01*
X667310D02*
X692710D01*
X667310Y752770D02*
Y787070D01*
Y752770D02*
X692710D01*
Y787070D01*
D14*
X834710Y519350D02*
Y730350D01*
X679710D02*
X834710D01*
X679710Y519350D02*
Y730350D01*
Y519350D02*
X834710D01*
X621167Y599101D02*
X629667Y584379D01*
X613373Y594601D02*
X621873Y579879D01*
X629667Y584379D01*
X613373Y594601D02*
X621167Y599101D01*
X641417Y563661D02*
X649917Y548939D01*
X633623Y559161D02*
X642123Y544439D01*
X649917Y548939D01*
X633623Y559161D02*
X641417Y563661D01*
X764440Y768050D02*
Y794050D01*
Y768050D02*
X790440D01*
Y794050D01*
X764440D02*
X790440D01*
X788930Y485510D02*
Y511510D01*
X762930D02*
X788930D01*
X762930Y485510D02*
Y511510D01*
Y485510D02*
X788930D01*
X616007Y569715D02*
X638523Y582715D01*
X625523Y605232D02*
X638523Y582715D01*
X603007Y592232D02*
X625523Y605232D01*
X603007Y592232D02*
X616007Y569715D01*
X879912Y606308D02*
X902428Y593308D01*
X866912Y583792D02*
X879912Y606308D01*
X866912Y583792D02*
X889428Y570792D01*
X902428Y593308D01*
X870072Y692838D02*
X892588Y705838D01*
X870072Y692838D02*
X883072Y670322D01*
X905588Y683322D01*
X892588Y705838D02*
X905588Y683322D01*
X602957Y685548D02*
X625473Y672548D01*
X638474Y695065D01*
X615957Y708064D02*
X638474Y695065D01*
X602957Y685548D02*
X615957Y708064D01*
X808683Y753151D02*
X816477Y757651D01*
X817183Y738429D02*
X824977Y742929D01*
X816477Y757651D02*
X824977Y742929D01*
X808683Y753151D02*
X817183Y738429D01*
X824560Y596570D02*
Y604570D01*
X840560Y596570D02*
Y604570D01*
X824560D02*
X840560D01*
X824560Y596570D02*
X840560D01*
X645980Y626380D02*
Y643380D01*
X636980Y626380D02*
Y643380D01*
X645980D01*
X636980Y626380D02*
X645980D01*
X597010Y627480D02*
Y644480D01*
X588010Y627480D02*
Y644480D01*
X597010D01*
X588010Y627480D02*
X597010D01*
X847107Y733032D02*
X869623Y746032D01*
X847107Y733032D02*
X860107Y710516D01*
X882624Y723516D01*
X869623Y746032D02*
X882624Y723516D01*
X626117Y725555D02*
X648633Y712555D01*
X661633Y735072D01*
X639117Y748072D02*
X661633Y735072D01*
X626117Y725555D02*
X639117Y748072D01*
X742720Y485430D02*
Y511430D01*
X716720D02*
X742720D01*
X716720Y485430D02*
Y511430D01*
Y485430D02*
X742720D01*
X718170Y768100D02*
Y794100D01*
Y768100D02*
X744170D01*
Y794100D01*
X718170D02*
X744170D01*
X626227Y552174D02*
X639227Y529658D01*
X626227Y552174D02*
X648743Y565174D01*
X661743Y542658D01*
X639227Y529658D02*
X661743Y542658D01*
X866323Y530948D02*
X879323Y553464D01*
X843806Y543948D02*
X866323Y530948D01*
X843806Y543948D02*
X856806Y566465D01*
X879323Y553464D01*
X687691Y536189D02*
Y568188D01*
X737691D01*
X687691Y536189D02*
X737691D01*
Y568188D01*
D69*
X796640Y721410D02*
X803760D01*
X796640Y712900D02*
X803760D01*
X596150Y632420D02*
Y639540D01*
X604660Y632420D02*
Y639540D01*
X675890Y633380D02*
Y640500D01*
X684400Y633380D02*
Y640500D01*
X691980Y633820D02*
Y640940D01*
X700490Y633820D02*
Y640940D01*
X679060Y514310D02*
X686180D01*
X679060Y522820D02*
X686180D01*
X810421Y767903D02*
X813981Y761737D01*
X803051Y763648D02*
X806611Y757482D01*
X637970Y631320D02*
Y638440D01*
X629460Y631320D02*
Y638440D01*
X761800Y547600D02*
Y554720D01*
X753290Y547600D02*
Y554720D01*
X833170Y622570D02*
X840290D01*
X833170Y614060D02*
X840290D01*
X832460Y630780D02*
X839580D01*
X832460Y639290D02*
X839580D01*
M02*
