G04*
G04 #@! TF.GenerationSoftware,Altium Limited,Altium Designer,21.9.1 (22)*
G04*
G04 Layer_Color=16711935*
%FSLAX44Y44*%
%MOMM*%
G71*
G04*
G04 #@! TF.SameCoordinates,043B7ADD-777D-4B4F-A2BF-0A1D89707C51*
G04*
G04*
G04 #@! TF.FilePolarity,Negative*
G04*
G01*
G75*
%ADD11C,0.0000*%
G04:AMPARAMS|DCode=41|XSize=0.9932mm|YSize=1.1332mm|CornerRadius=0mm|HoleSize=0mm|Usage=FLASHONLY|Rotation=300.000|XOffset=0mm|YOffset=0mm|HoleType=Round|Shape=Rectangle|*
%AMROTATEDRECTD41*
4,1,4,-0.7390,0.1468,0.2424,0.7134,0.7390,-0.1468,-0.2424,-0.7134,-0.7390,0.1468,0.0*
%
%ADD41ROTATEDRECTD41*%

%ADD43R,1.2032X1.3032*%
%ADD48C,1.2632*%
%ADD49R,1.2632X1.2632*%
%ADD50C,1.7032*%
%ADD51P,2.4087X4X345.0*%
%ADD64R,5.2900X1.2110*%
%ADD65R,5.2660X0.8690*%
%ADD66C,10.2032*%
%ADD67R,5.3032X2.7032*%
G04:AMPARAMS|DCode=68|XSize=1.3032mm|YSize=1.2032mm|CornerRadius=0mm|HoleSize=0mm|Usage=FLASHONLY|Rotation=120.000|XOffset=0mm|YOffset=0mm|HoleType=Round|Shape=Rectangle|*
%AMROTATEDRECTD68*
4,1,4,0.8468,-0.2635,-0.1952,-0.8651,-0.8468,0.2635,0.1952,0.8651,0.8468,-0.2635,0.0*
%
%ADD68ROTATEDRECTD68*%

D11*
X824302Y515102D02*
G03*
X824302Y515102I-6220J0D01*
G01*
X830651Y526100D02*
G03*
X830651Y526100I-6220J0D01*
G01*
X835300Y508751D02*
G03*
X835300Y508751I-6220J0D01*
G01*
X841650Y519750D02*
G03*
X841650Y519750I-6220J0D01*
G01*
X846299Y502402D02*
G03*
X846299Y502402I-6220J0D01*
G01*
X852648Y513400D02*
G03*
X852648Y513400I-6220J0D01*
G01*
D41*
X617420Y596591D02*
D03*
X625620Y582389D02*
D03*
X637670Y561151D02*
D03*
X645870Y546949D02*
D03*
D43*
X600340Y644480D02*
D03*
Y627480D02*
D03*
X633650Y626380D02*
D03*
Y643380D02*
D03*
D48*
X673660Y763570D02*
D03*
Y776270D02*
D03*
X686360Y763570D02*
D03*
D49*
Y776270D02*
D03*
D50*
X836758Y755720D02*
D03*
D51*
X824058Y777717D02*
D03*
D64*
X759240Y724295D02*
D03*
D65*
X759220Y526775D02*
D03*
D66*
X759210Y624850D02*
D03*
D67*
Y510350D02*
D03*
Y739350D02*
D03*
D68*
X812710Y755298D02*
D03*
X804210Y770021D02*
D03*
M02*
