G04*
G04 #@! TF.GenerationSoftware,Altium Limited,Altium Designer,21.9.1 (22)*
G04*
G04 Layer_Color=65535*
%FSLAX44Y44*%
%MOMM*%
G71*
G04*
G04 #@! TF.SameCoordinates,043B7ADD-777D-4B4F-A2BF-0A1D89707C51*
G04*
G04*
G04 #@! TF.FilePolarity,Positive*
G04*
G01*
G75*
%ADD10C,0.1524*%
%ADD11C,0.0000*%
%ADD12C,0.2000*%
%ADD13C,0.1000*%
%ADD14C,0.1270*%
%ADD15C,0.2540*%
D10*
X738690Y665752D02*
G03*
X738690Y665752I-3592J0D01*
G01*
X796530Y604320D02*
Y672320D01*
X728530Y604320D02*
X796530D01*
X728530D02*
Y672320D01*
X796530D01*
X672004Y433578D02*
X677083D01*
X674544D01*
Y448814D01*
X672004Y446274D01*
X684700D02*
X687240Y448814D01*
X692318D01*
X694857Y446274D01*
Y443735D01*
X692318Y441196D01*
X694857Y438657D01*
Y436118D01*
X692318Y433578D01*
X687240D01*
X684700Y436118D01*
Y438657D01*
X687240Y441196D01*
X684700Y443735D01*
Y446274D01*
X687240Y441196D02*
X692318D01*
X699935Y433578D02*
Y436118D01*
X702475D01*
Y433578D01*
X699935D01*
X722788D02*
X712631D01*
X722788Y443735D01*
Y446274D01*
X720249Y448814D01*
X715171D01*
X712631Y446274D01*
X727866Y436118D02*
X730406Y433578D01*
X735484D01*
X738023Y436118D01*
Y446274D01*
X735484Y448814D01*
X730406D01*
X727866Y446274D01*
Y443735D01*
X730406Y441196D01*
X738023D01*
X743101Y446274D02*
X745641Y448814D01*
X750719D01*
X753258Y446274D01*
Y443735D01*
X750719Y441196D01*
X748180D01*
X750719D01*
X753258Y438657D01*
Y436118D01*
X750719Y433578D01*
X745641D01*
X743101Y436118D01*
X778650Y433578D02*
X773572Y438657D01*
Y443735D01*
X778650Y448814D01*
X786267Y433578D02*
Y443735D01*
X788807D01*
X791346Y441196D01*
Y433578D01*
Y441196D01*
X793885Y443735D01*
X796424Y441196D01*
Y433578D01*
X801503D02*
Y443735D01*
X804042D01*
X806581Y441196D01*
Y433578D01*
Y441196D01*
X809120Y443735D01*
X811659Y441196D01*
Y433578D01*
X816738D02*
X821816Y438657D01*
Y443735D01*
X816738Y448814D01*
X669465Y842656D02*
X671994Y845206D01*
X677072Y845227D01*
X679622Y842698D01*
X679632Y840159D01*
X677104Y837609D01*
X674565Y837599D01*
X677104Y837609D01*
X679653Y835080D01*
X679664Y832541D01*
X677135Y829992D01*
X672057Y829971D01*
X669507Y832499D01*
X694846Y845300D02*
X689779Y842740D01*
X684721Y837641D01*
X684742Y832562D01*
X687292Y830033D01*
X692370Y830054D01*
X694899Y832604D01*
X694888Y835143D01*
X692339Y837672D01*
X684721Y837641D01*
X699988Y830086D02*
X699977Y832625D01*
X702516Y832635D01*
X702527Y830096D01*
X699988Y830086D01*
X712621Y845373D02*
X722777Y845415D01*
X722788Y842876D01*
X712673Y832677D01*
X712683Y830138D01*
X727866Y842897D02*
X730395Y845446D01*
X735473Y845467D01*
X738023Y842939D01*
X738064Y832782D01*
X735536Y830232D01*
X730458Y830211D01*
X727908Y832740D01*
X727866Y842897D01*
X743153Y830264D02*
X748232Y830285D01*
X745692Y830274D01*
X745630Y845509D01*
X743101Y842960D01*
X776162Y830400D02*
X771063Y835457D01*
X771042Y840535D01*
X776099Y845635D01*
X783780Y830431D02*
X783738Y840588D01*
X786277Y840598D01*
X788827Y838070D01*
X788858Y830452D01*
X788827Y838070D01*
X791355Y840619D01*
X793905Y838090D01*
X793936Y830473D01*
X799015Y830494D02*
X798973Y840650D01*
X801512Y840661D01*
X804062Y838132D01*
X804093Y830515D01*
X804062Y838132D01*
X806590Y840682D01*
X809140Y838153D01*
X809171Y830536D01*
X814250Y830557D02*
X819307Y835656D01*
X819286Y840734D01*
X814187Y845792D01*
X521454Y571827D02*
X518931Y574382D01*
X518964Y579460D01*
X521519Y581983D01*
X524058Y581967D01*
X526581Y579411D01*
X526564Y576872D01*
X526581Y579411D01*
X529136Y581934D01*
X531675Y581918D01*
X534198Y579362D01*
X534165Y574284D01*
X531610Y571761D01*
X534313Y597136D02*
X534247Y586979D01*
X524156Y597201D01*
X521617Y597218D01*
X519062Y594695D01*
X519029Y589617D01*
X521552Y587061D01*
X534346Y602214D02*
X531806Y602231D01*
X531823Y604770D01*
X534362Y604753D01*
X534346Y602214D01*
X521732Y614992D02*
X519209Y617547D01*
X519242Y622626D01*
X521797Y625148D01*
X531954Y625083D01*
X534477Y622527D01*
X534444Y617449D01*
X531888Y614926D01*
X521732Y614992D01*
X521830Y630227D02*
X519307Y632782D01*
X519340Y637860D01*
X521896Y640383D01*
X532052Y640318D01*
X534575Y637762D01*
X534542Y632684D01*
X531987Y630161D01*
X521830Y630227D01*
X534624Y645379D02*
X534657Y650458D01*
X534640Y647918D01*
X519406Y648017D01*
X521928Y645461D01*
X534837Y678388D02*
X529726Y673343D01*
X524648Y673375D01*
X519602Y678486D01*
X534886Y686005D02*
X524729Y686071D01*
X524746Y688610D01*
X527301Y691133D01*
X534919Y691084D01*
X527301Y691133D01*
X524779Y693688D01*
X527334Y696211D01*
X534952Y696162D01*
X534984Y701240D02*
X524828Y701306D01*
X524844Y703845D01*
X527400Y706367D01*
X535017Y706318D01*
X527400Y706367D01*
X524877Y708923D01*
X527432Y711446D01*
X535050Y711397D01*
X535083Y716475D02*
X530037Y721586D01*
X524959Y721619D01*
X519848Y716573D01*
D11*
X720070Y675820D02*
G03*
X720070Y675820I-2540J0D01*
G01*
D12*
X778440Y755050D02*
G03*
X778440Y755050I-1000J0D01*
G01*
X776930Y524510D02*
G03*
X776930Y524510I-1000J0D01*
G01*
X644282Y600474D02*
G03*
X644282Y600474I-1000J0D01*
G01*
X863153Y601550D02*
G03*
X863153Y601550I-1000J0D01*
G01*
X866313Y675080D02*
G03*
X866313Y675080I-1000J0D01*
G01*
X700210Y776270D02*
G03*
X700210Y776270I-1000J0D01*
G01*
X644232Y677306D02*
G03*
X644232Y677306I-1000J0D01*
G01*
X843348Y715274D02*
G03*
X843348Y715274I-1000J0D01*
G01*
X667392Y717314D02*
G03*
X667392Y717314I-1000J0D01*
G01*
X730720Y524430D02*
G03*
X730720Y524430I-1000J0D01*
G01*
X732170Y755100D02*
G03*
X732170Y755100I-1000J0D01*
G01*
X667502Y560416D02*
G03*
X667502Y560416I-1000J0D01*
G01*
X840048Y561706D02*
G03*
X840048Y561706I-1000J0D01*
G01*
X693692Y526688D02*
G03*
X693692Y526688I-1000J0D01*
G01*
X804240Y512827D02*
X819480Y539224D01*
X804240Y512827D02*
X845030Y489277D01*
X860270Y515674D01*
X819480Y539224D02*
X860270Y515674D01*
X667310Y787070D02*
X692710D01*
X667310Y752770D02*
X692710D01*
X669060Y617950D02*
Y647950D01*
X654060Y617950D02*
X669060D01*
X654060D02*
Y647950D01*
X828707Y795065D02*
X854107Y751071D01*
X806710Y782365D02*
X828707Y795065D01*
X806710Y782365D02*
X832110Y738371D01*
X854107Y751071D01*
X597851Y673042D02*
X599871Y671876D01*
X598861Y672459D01*
X595362Y666399D01*
X594352Y666982D01*
X596372Y665816D01*
X603442Y661734D02*
X599402Y664066D01*
X605775Y665774D01*
X606358Y666784D01*
X605931Y668377D01*
X603911Y669543D01*
X602318Y669117D01*
X612418Y663285D02*
X611992Y664878D01*
X609971Y666044D01*
X608378Y665618D01*
X606046Y661578D01*
X606473Y659984D01*
X608493Y658818D01*
X610086Y659245D01*
X596903Y611402D02*
X600402Y605342D01*
X603432Y607091D01*
X603859Y608685D01*
X603276Y609695D01*
X601683Y610122D01*
X598653Y608372D01*
X601683Y610122D01*
X602110Y611715D01*
X601526Y612725D01*
X599933Y613152D01*
X596903Y611402D01*
X606462Y608841D02*
X604130Y612881D01*
X604983Y616067D01*
X608170Y615214D01*
X610502Y611174D01*
X608753Y614204D01*
X604713Y611871D01*
X609024Y618400D02*
X613064Y620733D01*
X611044Y619566D01*
X614543Y613506D01*
X690835Y503411D02*
X689669Y504578D01*
X687336D01*
X686170Y503411D01*
Y502245D01*
X687336Y501079D01*
X689669D01*
X690835Y499913D01*
Y498746D01*
X689669Y497580D01*
X687336D01*
X686170Y498746D01*
X693168Y497580D02*
Y504578D01*
X696667D01*
X697833Y503411D01*
Y501079D01*
X696667Y499913D01*
X693168D01*
X700165Y504578D02*
X702498D01*
X701332D01*
Y497580D01*
X700165D01*
X702498D01*
X882142Y620722D02*
X885641Y626782D01*
X888671Y625033D01*
X889098Y623440D01*
X887932Y621420D01*
X886338Y620993D01*
X883308Y622742D01*
X894731Y621534D02*
X892711Y622700D01*
X891118Y622273D01*
X888785Y618233D01*
X889212Y616640D01*
X891232Y615474D01*
X892825Y615901D01*
X895158Y619941D01*
X894731Y621534D01*
X897761Y619785D02*
X894262Y613724D01*
X897449Y614578D01*
X898303Y611392D01*
X901802Y617452D01*
X907862Y613953D02*
X903822Y616286D01*
X900323Y610225D01*
X904363Y607893D01*
X902072Y613256D02*
X904092Y612089D01*
X906383Y606726D02*
X909882Y612787D01*
X912912Y611037D01*
X913339Y609444D01*
X912172Y607424D01*
X910579Y606997D01*
X907549Y608747D01*
X909569Y607580D02*
X910423Y604394D01*
X896146Y660815D02*
X894553Y661242D01*
X892533Y660075D01*
X892106Y658482D01*
X892690Y657472D01*
X894283Y657045D01*
X896303Y658212D01*
X897896Y657785D01*
X898479Y656775D01*
X898052Y655182D01*
X896032Y654015D01*
X894439Y654442D01*
X901082Y656931D02*
X897583Y662991D01*
X900613Y664741D01*
X902207Y664314D01*
X903373Y662294D01*
X902946Y660700D01*
X899916Y658951D01*
X903644Y666490D02*
X905664Y667656D01*
X904654Y667073D01*
X908152Y661013D01*
X907142Y660430D01*
X909163Y661596D01*
X843250Y579668D02*
X841657Y579241D01*
X840491Y577221D01*
X840918Y575628D01*
X844958Y573295D01*
X846551Y573722D01*
X847717Y575742D01*
X847290Y577335D01*
X845270Y578502D01*
X844104Y576482D01*
X849467Y578772D02*
X843407Y582271D01*
X851799Y582812D01*
X845739Y586311D01*
X831228Y553382D02*
X833560Y557422D01*
X830374Y556568D02*
X834414Y554235D01*
X834029Y565231D02*
X831697Y561191D01*
X834727Y559442D01*
X834883Y562045D01*
X835466Y563055D01*
X837059Y563482D01*
X839079Y562316D01*
X839506Y560722D01*
X838340Y558702D01*
X836747Y558275D01*
X835195Y567251D02*
X839236Y564919D01*
X842422Y565773D01*
X841568Y568959D01*
X837528Y571292D01*
X834482Y529882D02*
X837981Y535942D01*
X841011Y534193D01*
X841438Y532600D01*
X840272Y530580D01*
X838679Y530153D01*
X835648Y531902D01*
X837668Y530736D02*
X838522Y527550D01*
X847498Y529101D02*
X847071Y530694D01*
X845051Y531860D01*
X843458Y531433D01*
X842875Y530423D01*
X843302Y528830D01*
X845322Y527664D01*
X845749Y526071D01*
X845166Y525061D01*
X843572Y524634D01*
X841552Y525800D01*
X841125Y527393D01*
X850101Y528945D02*
X854141Y526612D01*
X852122Y527778D01*
X848623Y521718D01*
X826822Y490902D02*
X830321Y496962D01*
X831175Y493776D01*
X834361Y494630D01*
X830862Y488569D01*
X839411Y491714D02*
X837391Y492880D01*
X835798Y492453D01*
X833465Y488413D01*
X833892Y486820D01*
X835912Y485654D01*
X837506Y486081D01*
X839838Y490121D01*
X839411Y491714D01*
X822548Y546090D02*
X822121Y547683D01*
X820101Y548849D01*
X818508Y548422D01*
X816175Y544382D01*
X816602Y542789D01*
X818622Y541623D01*
X820215Y542049D01*
X825151Y545933D02*
X821652Y539873D01*
X825693Y537541D01*
X831211Y542435D02*
X827712Y536374D01*
X828879Y538394D01*
X835252Y540102D01*
X830472Y538821D01*
X831753Y534042D01*
X800612Y505472D02*
X804111Y511532D01*
X804965Y508346D01*
X808151Y509200D01*
X804652Y503139D01*
X810171Y508033D02*
X812191Y506867D01*
X811181Y507450D01*
X807682Y501390D01*
X806672Y501973D01*
X808692Y500807D01*
X819728Y500940D02*
X819301Y502533D01*
X817281Y503699D01*
X815688Y503272D01*
X815105Y502262D01*
X815532Y500669D01*
X817552Y499503D01*
X817979Y497910D01*
X817395Y496899D01*
X815802Y496473D01*
X813782Y497639D01*
X813355Y499232D01*
X825788Y497441D02*
X825361Y499034D01*
X823341Y500200D01*
X821748Y499773D01*
X821165Y498763D01*
X821592Y497170D01*
X823612Y496004D01*
X824039Y494411D01*
X823456Y493401D01*
X821862Y492974D01*
X819842Y494140D01*
X819416Y495733D01*
X659591Y766060D02*
Y770725D01*
X657259Y768393D02*
X661924D01*
X656092Y777723D02*
Y773058D01*
X659591D01*
X658425Y775390D01*
Y776557D01*
X659591Y777723D01*
X661924D01*
X663090Y776557D01*
Y774224D01*
X661924Y773058D01*
X656092Y780055D02*
X660757D01*
X663090Y782388D01*
X660757Y784721D01*
X656092D01*
X697242Y777170D02*
Y781835D01*
Y779503D01*
X704240D01*
X697242Y784168D02*
X704240Y788833D01*
X697242D02*
X704240Y784168D01*
X706010Y755700D02*
X699012D01*
Y759199D01*
X700179Y760365D01*
X702511D01*
X703677Y759199D01*
Y755700D01*
Y758033D02*
X706010Y760365D01*
X699012Y762698D02*
X706010Y767363D01*
X699012D02*
X706010Y762698D01*
X656979Y756935D02*
X655812Y755769D01*
Y753436D01*
X656979Y752270D01*
X661644D01*
X662810Y753436D01*
Y755769D01*
X661644Y756935D01*
X659311D01*
Y754603D01*
X662810Y759268D02*
X655812D01*
X662810Y763933D01*
X655812D01*
X747330Y744918D02*
Y739086D01*
X748496Y737920D01*
X750829D01*
X751995Y739086D01*
Y744918D01*
X754328Y737920D02*
Y742585D01*
X756660Y744918D01*
X758993Y742585D01*
Y737920D01*
Y741419D01*
X754328D01*
X761326Y737920D02*
Y744918D01*
X764824D01*
X765991Y743751D01*
Y741419D01*
X764824Y740253D01*
X761326D01*
X763658D02*
X765991Y737920D01*
X768323Y744918D02*
X772988D01*
X770656D01*
Y737920D01*
X619365Y660779D02*
X624030D01*
X621697D01*
Y653781D01*
X626363D02*
X628695D01*
X627529D01*
Y660779D01*
X626363Y659613D01*
X586479Y653671D02*
Y660669D01*
X589977D01*
X591144Y659503D01*
Y657170D01*
X589977Y656004D01*
X586479D01*
X588811D02*
X591144Y653671D01*
X596975D02*
Y660669D01*
X593476Y657170D01*
X598142D01*
X636725Y652031D02*
Y659029D01*
X640224D01*
X641390Y657863D01*
Y655530D01*
X640224Y654364D01*
X636725D01*
X639057D02*
X641390Y652031D01*
X643723D02*
X646055D01*
X644889D01*
Y659029D01*
X643723Y657863D01*
X773977Y712928D02*
X772811Y711762D01*
Y709429D01*
X773977Y708263D01*
X778643D01*
X779809Y709429D01*
Y711762D01*
X778643Y712928D01*
X779809Y715261D02*
Y717593D01*
Y716427D01*
X772811D01*
X773977Y715261D01*
Y721092D02*
X772811Y722258D01*
Y724591D01*
X773977Y725757D01*
X778643D01*
X779809Y724591D01*
Y722258D01*
X778643Y721092D01*
X773977D01*
X674378Y797039D02*
X672045D01*
X673212D01*
Y791207D01*
X672045Y790041D01*
X670879D01*
X669713Y791207D01*
X676711Y790041D02*
X679043D01*
X677877D01*
Y797039D01*
X676711Y795873D01*
X686041Y790041D02*
Y797039D01*
X682542Y793540D01*
X687207D01*
X802650Y528344D02*
X801484Y526324D01*
X802067Y527334D01*
X807117Y524418D01*
X807544Y522825D01*
X806961Y521815D01*
X805368Y521388D01*
X809877Y526866D02*
X811043Y528886D01*
X810460Y527876D01*
X804400Y531374D01*
X804827Y529781D01*
X807742Y534831D02*
X807316Y536425D01*
X808482Y538445D01*
X810075Y538872D01*
X811085Y538288D01*
X811512Y536695D01*
X810929Y535685D01*
X811512Y536695D01*
X813105Y537122D01*
X814115Y536539D01*
X814542Y534946D01*
X813376Y532926D01*
X811783Y532499D01*
X866392Y618956D02*
X865226Y616936D01*
X865809Y617946D01*
X870859Y615030D01*
X871286Y613437D01*
X870703Y612427D01*
X869110Y612000D01*
X873618Y617477D02*
X874785Y619497D01*
X874202Y618487D01*
X868141Y621986D01*
X868568Y620393D01*
X878867Y626567D02*
X876534Y622527D01*
X874827Y628900D01*
X873817Y629483D01*
X872223Y629056D01*
X871057Y627036D01*
X871484Y625443D01*
X868248Y655565D02*
X869414Y653545D01*
X868831Y654555D01*
X873881Y657471D01*
X875474Y657044D01*
X876057Y656034D01*
X875630Y654441D01*
X873142Y661084D02*
X871975Y663104D01*
X872559Y662094D01*
X866498Y658596D01*
X868092Y658169D01*
X870226Y666135D02*
X869060Y668155D01*
X869643Y667145D01*
X863583Y663646D01*
X865176Y663219D01*
X651361Y585605D02*
X652527Y583585D01*
X651944Y584595D01*
X656994Y587511D01*
X658587Y587084D01*
X659171Y586074D01*
X658744Y584481D01*
X656255Y591124D02*
X655089Y593144D01*
X655672Y592134D01*
X649611Y588635D01*
X651205Y588209D01*
X648289Y593259D02*
X646696Y593686D01*
X645529Y595706D01*
X645956Y597299D01*
X649996Y599632D01*
X651590Y599205D01*
X652756Y597185D01*
X652329Y595591D01*
X648289Y593259D01*
X789544Y531089D02*
X787211D01*
X788377D01*
Y525257D01*
X787211Y524091D01*
X786045D01*
X784878Y525257D01*
X791876D02*
X793043Y524091D01*
X795375D01*
X796542Y525257D01*
Y529923D01*
X795375Y531089D01*
X793043D01*
X791876Y529923D01*
Y528756D01*
X793043Y527590D01*
X796542D01*
X792304Y754619D02*
X789971D01*
X791137D01*
Y748787D01*
X789971Y747621D01*
X788805D01*
X787638Y748787D01*
X794636Y753453D02*
X795803Y754619D01*
X798135D01*
X799301Y753453D01*
Y752286D01*
X798135Y751120D01*
X799301Y749954D01*
Y748787D01*
X798135Y747621D01*
X795803D01*
X794636Y748787D01*
Y749954D01*
X795803Y751120D01*
X794636Y752286D01*
Y753453D01*
X795803Y751120D02*
X798135D01*
X841023Y782090D02*
X847083Y785589D01*
X848832Y782559D01*
X848406Y780966D01*
X846386Y779800D01*
X844792Y780227D01*
X843043Y783257D01*
X844209Y781236D02*
X843355Y778050D01*
X851905Y774906D02*
X852331Y776499D01*
X851165Y778519D01*
X849572Y778946D01*
X848562Y778363D01*
X848135Y776769D01*
X849301Y774749D01*
X848874Y773156D01*
X847864Y772573D01*
X846271Y773000D01*
X845105Y775020D01*
X845532Y776613D01*
X854081Y773469D02*
X856413Y769429D01*
X855247Y771449D01*
X849187Y767950D01*
X672662Y728873D02*
X671495Y726853D01*
X672079Y727863D01*
X677129Y724948D01*
X677556Y723354D01*
X676973Y722344D01*
X675379Y721917D01*
X673828Y730893D02*
X676161Y734933D01*
X677171Y734350D01*
X678878Y727978D01*
X679888Y727394D01*
X704827Y529807D02*
Y528641D01*
X707159Y526309D01*
X709492Y528641D01*
Y529807D01*
X707159Y526309D02*
Y522810D01*
X711824D02*
X714157D01*
X712991D01*
Y529807D01*
X711824Y528641D01*
X825521Y591239D02*
X820856D01*
Y587740D01*
X823188D01*
X820856D01*
Y584241D01*
X827854Y591239D02*
Y584241D01*
X832519D01*
X834852D02*
X837184D01*
X836018D01*
Y591239D01*
X834852Y590073D01*
X856257Y635314D02*
X855091Y634147D01*
Y631815D01*
X856257Y630648D01*
X860922D01*
X862089Y631815D01*
Y634147D01*
X860922Y635314D01*
X856257Y637646D02*
X855091Y638813D01*
Y641145D01*
X856257Y642311D01*
X857424D01*
X858590Y641145D01*
X859756Y642311D01*
X860922D01*
X862089Y641145D01*
Y638813D01*
X860922Y637646D01*
X859756D01*
X858590Y638813D01*
X857424Y637646D01*
X856257D01*
X858590Y638813D02*
Y641145D01*
X830041Y735896D02*
X833540Y729836D01*
X830509Y728086D01*
X828916Y728513D01*
X827750Y730533D01*
X828177Y732126D01*
X831207Y733876D01*
X829187Y732709D02*
X826001Y733563D01*
X819940Y730064D02*
X823980Y732397D01*
X822273Y726024D01*
X822856Y725014D01*
X824449Y724587D01*
X826469Y725753D01*
X826896Y727347D01*
X661647Y568911D02*
X662813Y566891D01*
X662230Y567901D01*
X667281Y570817D01*
X668874Y570390D01*
X669457Y569380D01*
X669030Y567787D01*
X658148Y574972D02*
X660325Y573535D01*
X663511Y572681D01*
X665531Y573847D01*
X665958Y575440D01*
X664792Y577460D01*
X663198Y577887D01*
X662188Y577304D01*
X661762Y575711D01*
X663511Y572681D01*
X841852Y700385D02*
Y698053D01*
Y699219D01*
X847684D01*
X848850Y698053D01*
Y696886D01*
X847684Y695720D01*
X841852Y707383D02*
Y702718D01*
X845351D01*
X844185Y705050D01*
Y706217D01*
X845351Y707383D01*
X847684D01*
X848850Y706217D01*
Y703884D01*
X847684Y702718D01*
X821005Y563798D02*
X818673D01*
X819839D01*
Y557966D01*
X818673Y556800D01*
X817506D01*
X816340Y557966D01*
X826837Y556800D02*
Y563798D01*
X823338Y560299D01*
X828003D01*
X694875Y491548D02*
X692543D01*
X693709D01*
Y485716D01*
X692543Y484550D01*
X691376D01*
X690210Y485716D01*
X697208Y490382D02*
X698374Y491548D01*
X700707D01*
X701873Y490382D01*
Y489215D01*
X700707Y488049D01*
X699540D01*
X700707D01*
X701873Y486883D01*
Y485716D01*
X700707Y484550D01*
X698374D01*
X697208Y485716D01*
X745645Y755878D02*
X743313D01*
X744479D01*
Y750046D01*
X743313Y748880D01*
X742146D01*
X740980Y750046D01*
X752643Y748880D02*
X747978D01*
X752643Y753545D01*
Y754712D01*
X751477Y755878D01*
X749144D01*
X747978Y754712D01*
X653075Y690588D02*
X650743D01*
X651909D01*
Y684756D01*
X650743Y683590D01*
X649576D01*
X648410Y684756D01*
X655408Y683590D02*
X657740D01*
X656574D01*
Y690588D01*
X655408Y689421D01*
X656170Y664518D02*
Y657520D01*
X659669D01*
X660835Y658686D01*
Y663352D01*
X659669Y664518D01*
X656170D01*
X663168Y657520D02*
X665500D01*
X664334D01*
Y664518D01*
X663168Y663352D01*
X657289Y516665D02*
X656122Y515499D01*
Y513166D01*
X657289Y512000D01*
X661954D01*
X663120Y513166D01*
Y515499D01*
X661954Y516665D01*
X656122Y523663D02*
Y518998D01*
X659621D01*
X658455Y521330D01*
Y522497D01*
X659621Y523663D01*
X661954D01*
X663120Y522497D01*
Y520164D01*
X661954Y518998D01*
X857518Y617605D02*
X856352Y616439D01*
Y614106D01*
X857518Y612940D01*
X862184D01*
X863350Y614106D01*
Y616439D01*
X862184Y617605D01*
X863350Y623437D02*
X856352D01*
X859851Y619938D01*
Y624603D01*
X755855Y576642D02*
X754689Y577808D01*
X752356D01*
X751190Y576642D01*
Y571976D01*
X752356Y570810D01*
X754689D01*
X755855Y571976D01*
X758188Y576642D02*
X759354Y577808D01*
X761687D01*
X762853Y576642D01*
Y575475D01*
X761687Y574309D01*
X760520D01*
X761687D01*
X762853Y573143D01*
Y571976D01*
X761687Y570810D01*
X759354D01*
X758188Y571976D01*
X681445Y611479D02*
X682611Y610312D01*
X684944D01*
X686110Y611479D01*
Y616144D01*
X684944Y617310D01*
X682611D01*
X681445Y616144D01*
X674447Y617310D02*
X679112D01*
X674447Y612645D01*
Y611479D01*
X675613Y610312D01*
X677946D01*
X679112Y611479D01*
X696325Y611429D02*
X697491Y610262D01*
X699824D01*
X700990Y611429D01*
Y616094D01*
X699824Y617260D01*
X697491D01*
X696325Y616094D01*
X693992Y617260D02*
X691660D01*
X692826D01*
Y610262D01*
X693992Y611429D01*
D13*
X754230Y735130D02*
G03*
X754330Y735371I-241J241D01*
G01*
D14*
X764440Y766850D02*
X769240D01*
X785640D02*
X790440D01*
X764440Y795250D02*
X790440D01*
X784130Y512710D02*
X788930D01*
X762930D02*
X767730D01*
X762930Y484310D02*
X788930D01*
X637163Y587472D02*
X639563Y583316D01*
X626563Y605832D02*
X628963Y601675D01*
X601968Y591632D02*
X614967Y569115D01*
X876472Y602751D02*
X878873Y606908D01*
X865872Y584392D02*
X868272Y588549D01*
X890468Y570192D02*
X903468Y592708D01*
X869033Y692238D02*
X871432Y688081D01*
X879632Y673879D02*
X882032Y669722D01*
X893627Y706438D02*
X906628Y683922D01*
X626513Y671948D02*
X628913Y676105D01*
X637113Y690308D02*
X639512Y694465D01*
X601917Y686148D02*
X614918Y708664D01*
X812383Y746743D02*
X813483Y744837D01*
X820177Y751243D02*
X821277Y749337D01*
X636980Y633780D02*
Y635980D01*
X645980Y633780D02*
Y635980D01*
X588010Y634880D02*
Y637080D01*
X597010Y634880D02*
Y637080D01*
X630490Y627310D02*
Y645310D01*
X601490Y627310D02*
X630490D01*
X601490D02*
Y645310D01*
X630490D01*
X846067Y732432D02*
X848468Y728275D01*
X856667Y714072D02*
X859068Y709915D01*
X870663Y746632D02*
X883662Y724116D01*
X649673Y711955D02*
X652073Y716113D01*
X660273Y730315D02*
X662673Y734472D01*
X625078Y726155D02*
X638078Y748672D01*
X737920Y512630D02*
X742720D01*
X716720D02*
X721520D01*
X716720Y484230D02*
X742720D01*
X718170Y766900D02*
X722970D01*
X739370D02*
X744170D01*
X718170Y795300D02*
X744170D01*
X625187Y551574D02*
X638187Y529058D01*
X649782Y565774D02*
X652182Y561618D01*
X660382Y547415D02*
X662782Y543258D01*
X867362Y530348D02*
X880362Y552864D01*
X842767Y544548D02*
X845167Y548705D01*
X853367Y562907D02*
X855767Y567064D01*
X687691Y549388D02*
Y554989D01*
X737691Y549388D02*
Y554989D01*
X704892Y568188D02*
X720492D01*
X704892Y536189D02*
X720492D01*
D15*
X839898Y440180D02*
Y445260D01*
X656970Y440180D02*
Y445260D01*
X824658Y437640D02*
X839898Y442720D01*
X824658Y447800D02*
X839898Y442720D01*
X656970D02*
X672210Y437640D01*
X656970Y442720D02*
X672210Y447800D01*
X827404Y442720D02*
X839898D01*
X656970D02*
X669464D01*
X929401Y842713D02*
X929422Y837633D01*
X562396Y841200D02*
X562417Y836121D01*
X914193Y835030D02*
X929412Y840173D01*
X914151Y845190D02*
X929412Y840173D01*
X562407Y838661D02*
X577667Y833643D01*
X562407Y838661D02*
X577626Y843803D01*
X824878Y839742D02*
X929412Y840173D01*
X562407Y838661D02*
X666940Y839091D01*
X523993Y808248D02*
X529073Y808215D01*
X521929Y488248D02*
X527009Y488216D01*
X526533Y808232D02*
X531514Y792959D01*
X521354Y793025D02*
X526533Y808232D01*
X524469Y488232D02*
X529647Y503439D01*
X519487Y503504D02*
X524469Y488232D01*
X526010Y727200D02*
X526533Y808232D01*
X524469Y488232D02*
X524991Y569264D01*
X845460Y799600D02*
X936710Y641550D01*
X843955Y480332D02*
X936455Y640546D01*
X569320Y638474D02*
X660838Y479960D01*
X660815Y480000D02*
X843802D01*
X662878Y800000D02*
X845400D01*
X569749Y639675D02*
X662280Y799941D01*
M02*
