M48
;Layer_Color=9474304
;FILE_FORMAT=4:4
METRIC,LZ
;TYPE=PLATED
T1F00S00C0.3000
T2F00S00C0.7100
T3F00S00C0.9000
%
T01
X00807632Y00558199
X0082743Y0057628
X00860001Y0055
X00855Y0052
X0087089Y0060893
X00870802Y00638319
X00895001Y0064
X00905001
X00915001
X00925001
X00920001Y0065
X00910001
X00900001
X00890001
X00895001Y0066
X00905001
X00915001
X00910001Y0067
Y0063
X00920001
X00915001Y0062
X00905001
X00895001
X00890001Y0063
X00900001
Y0061
X00910001
X00890001Y0059
X0085169Y0067463
X0082Y0067
X00825Y0066
X0082Y0065
X00815Y0068
X00805
X008Y0069
X0081
X0080945Y0070359
X00795Y007
X008Y0073
X0081
X0083958Y0073028
X00825Y0076
X0086121Y0075979
X007835Y007019
X0077491Y0070637
X00766769Y007019
X00725Y007
X00715
X00705
X00695
Y0072
X00705
X00715
X00725
X0072Y0073
X0071
X007
X00705Y0074
X00715
X00725
X0071Y0075
X007
X0069
X00695Y0074
X0067269Y0073457
X0067Y0067
X0068
X0069
X007
X00705Y0066
X00695
X00685
X00675
X00665
X0067Y0065
Y0061
X0068
X0069
X00685Y006
X00675
X00665
X00655
X00645
X0065Y0061
X0066
Y0059
X0067
X0068
X0069
X00695Y0058
X00685
X00675
X00665
X0067Y0057
X00675Y0056
Y0054
X00637162Y00544069
X0061Y0061
X0061415Y0064703
X00650613Y00627132
X0065093Y006795
X0074055Y0064389
X0071Y0059
X00717054Y00520137
X0077444Y005436
X0073169Y0077552
T02
X00818082Y00515102
X00824432Y005261
X0083543Y0051975
X00846429Y005134
X00840079Y00502402
X0082908Y00508751
X0068636Y0076357
X0067366
Y0077627
X0068636
T03
X00836758Y0075572
X00824058Y00777717
M30
