G04*
G04 #@! TF.GenerationSoftware,Altium Limited,Altium Designer,21.9.1 (22)*
G04*
G04 Layer_Color=32768*
%FSLAX44Y44*%
%MOMM*%
G71*
G04*
G04 #@! TF.SameCoordinates,043B7ADD-777D-4B4F-A2BF-0A1D89707C51*
G04*
G04*
G04 #@! TF.FilePolarity,Positive*
G04*
G01*
G75*
%ADD13C,0.1000*%
%ADD70C,0.0500*%
%ADD71C,0.0508*%
D13*
X653560Y654450D02*
X669560D01*
X653560Y617450D02*
X669560D01*
X653560D02*
Y654450D01*
X669560Y617450D02*
Y654450D01*
D70*
X707530Y583320D02*
X817530D01*
Y693320D01*
X707530D02*
X817530D01*
X707530Y583320D02*
Y693320D01*
X850710Y495350D02*
Y754350D01*
X667710D02*
X850710D01*
X667710Y495350D02*
Y754350D01*
Y495350D02*
X850710D01*
X620387Y605752D02*
X635037Y580378D01*
X608003Y598602D02*
X622653Y573228D01*
X608003Y598602D02*
X620387Y605752D01*
X622653Y573228D02*
X635037Y580378D01*
X640637Y570312D02*
X655287Y544938D01*
X628253Y563162D02*
X642903Y537788D01*
X628253Y563162D02*
X640637Y570312D01*
X642903Y537788D02*
X655287Y544938D01*
X754940Y758050D02*
Y796550D01*
Y758050D02*
X799940D01*
Y796550D01*
X754940D02*
X799940D01*
X798430Y483010D02*
Y521510D01*
X753430D02*
X798430D01*
X753430Y483010D02*
Y521510D01*
Y483010D02*
X798430D01*
X618592Y560238D02*
X651934Y579488D01*
X629434Y618460D02*
X651934Y579488D01*
X596092Y599210D02*
X629434Y618460D01*
X596092Y599210D02*
X618592Y560238D01*
X876001Y619536D02*
X909343Y600286D01*
X853501Y580564D02*
X876001Y619536D01*
X853501Y580564D02*
X886843Y561314D01*
X909343Y600286D01*
X856661Y696066D02*
X890003Y715316D01*
X856661Y696066D02*
X879161Y657094D01*
X912503Y676344D01*
X890003Y715316D02*
X912503Y676344D01*
X664810Y789570D02*
X695210D01*
X664810Y750270D02*
Y789570D01*
Y750270D02*
X695210D01*
Y789570D01*
X596042Y678570D02*
X629383Y659321D01*
X651884Y698292D01*
X618542Y717542D02*
X651884Y698292D01*
X596042Y678570D02*
X618542Y717542D01*
X817963Y731778D02*
X830347Y738928D01*
X803313Y757152D02*
X815697Y764302D01*
X830347Y738928D01*
X803313Y757152D02*
X817963Y731778D01*
X847410Y593220D02*
Y607920D01*
X817710Y593220D02*
Y607920D01*
X847410D01*
X817710Y593220D02*
X847410D01*
X648630Y620230D02*
Y649530D01*
X634330Y620230D02*
Y649530D01*
Y620230D02*
X648630D01*
X634330Y649530D02*
X648630D01*
X599660Y621330D02*
Y650630D01*
X585360Y621330D02*
Y650630D01*
Y621330D02*
X599660D01*
X585360Y650630D02*
X599660D01*
X833697Y736259D02*
X867039Y755510D01*
X833697Y736259D02*
X856196Y697288D01*
X889538Y716538D01*
X867039Y755510D02*
X889538Y716538D01*
X619202Y718578D02*
X652544Y699328D01*
X675044Y738299D01*
X641702Y757550D02*
X675044Y738299D01*
X619202Y718578D02*
X641702Y757550D01*
X752220Y482930D02*
Y521430D01*
X707220D02*
X752220D01*
X707220Y482930D02*
Y521430D01*
Y482930D02*
X752220D01*
X708670Y758100D02*
Y796600D01*
Y758100D02*
X753670D01*
Y796600D01*
X708670D02*
X753670D01*
X619312Y559152D02*
X641811Y520180D01*
X619312Y559152D02*
X652653Y578402D01*
X675154Y539431D01*
X641811Y520180D02*
X675154Y539431D01*
X863738Y521470D02*
X886238Y560442D01*
X830396Y540721D02*
X863738Y521470D01*
X830396Y540721D02*
X852896Y579692D01*
X886238Y560442D01*
X681192Y531689D02*
Y572688D01*
Y531689D02*
X744192D01*
X681192Y572688D02*
X744192D01*
Y531689D02*
Y572688D01*
D71*
X816930Y709390D02*
Y725050D01*
X783470D02*
X816930D01*
X783470Y709390D02*
Y725050D01*
Y709390D02*
X816930D01*
X592510Y619250D02*
X608170D01*
X592510D02*
Y652710D01*
X608170D01*
Y619250D02*
Y652710D01*
X672250Y653670D02*
X687910D01*
X672250Y620210D02*
Y653670D01*
Y620210D02*
X687910D01*
Y653670D01*
X688340Y654110D02*
X704000D01*
X688340Y620650D02*
Y654110D01*
Y620650D02*
X704000D01*
Y654110D01*
X665890Y510670D02*
Y526330D01*
Y510670D02*
X699350D01*
Y526330D01*
X665890D02*
X699350D01*
X806876Y781064D02*
X823606Y752087D01*
X793314Y773234D02*
X806876Y781064D01*
X793314Y773234D02*
X810044Y744257D01*
X823606Y752087D01*
X641480Y618150D02*
Y651610D01*
X625820D02*
X641480D01*
X625820Y618150D02*
Y651610D01*
Y618150D02*
X641480D01*
X749780Y534430D02*
X765440D01*
Y567890D01*
X749780D02*
X765440D01*
X749780Y534430D02*
Y567890D01*
X853460Y610550D02*
Y626210D01*
X820000D02*
X853460D01*
X820000Y610550D02*
Y626210D01*
Y610550D02*
X853460D01*
X819290Y627270D02*
X852750D01*
X819290D02*
Y642930D01*
X852750D01*
Y627270D02*
Y642930D01*
M02*
