G04*
G04 #@! TF.GenerationSoftware,Altium Limited,Altium Designer,21.9.1 (22)*
G04*
G04 Layer_Physical_Order=1*
G04 Layer_Color=255*
%FSLAX44Y44*%
%MOMM*%
G71*
G04*
G04 #@! TF.SameCoordinates,043B7ADD-777D-4B4F-A2BF-0A1D89707C51*
G04*
G04*
G04 #@! TF.FilePolarity,Positive*
G04*
G01*
G75*
%ADD16R,1.5000X0.5500*%
%ADD17R,0.5500X1.5000*%
%ADD18R,1.1000X1.0000*%
%ADD19R,1.0500X2.2000*%
%ADD20R,1.0000X1.0500*%
G04:AMPARAMS|DCode=21|XSize=1.05mm|YSize=2.2mm|CornerRadius=0mm|HoleSize=0mm|Usage=FLASHONLY|Rotation=120.000|XOffset=0mm|YOffset=0mm|HoleType=Round|Shape=Rectangle|*
%AMROTATEDRECTD21*
4,1,4,1.2151,0.0953,-0.6901,-1.0047,-1.2151,-0.0953,0.6901,1.0047,1.2151,0.0953,0.0*
%
%ADD21ROTATEDRECTD21*%

G04:AMPARAMS|DCode=22|XSize=1mm|YSize=1.05mm|CornerRadius=0mm|HoleSize=0mm|Usage=FLASHONLY|Rotation=120.000|XOffset=0mm|YOffset=0mm|HoleType=Round|Shape=Rectangle|*
%AMROTATEDRECTD22*
4,1,4,0.7047,-0.1705,-0.2047,-0.6955,-0.7047,0.1705,0.2047,0.6955,0.7047,-0.1705,0.0*
%
%ADD22ROTATEDRECTD22*%

G04:AMPARAMS|DCode=23|XSize=1.05mm|YSize=2.2mm|CornerRadius=0mm|HoleSize=0mm|Usage=FLASHONLY|Rotation=240.000|XOffset=0mm|YOffset=0mm|HoleType=Round|Shape=Rectangle|*
%AMROTATEDRECTD23*
4,1,4,-0.6901,1.0047,1.2151,-0.0953,0.6901,-1.0047,-1.2151,0.0953,-0.6901,1.0047,0.0*
%
%ADD23ROTATEDRECTD23*%

G04:AMPARAMS|DCode=24|XSize=1mm|YSize=1.05mm|CornerRadius=0mm|HoleSize=0mm|Usage=FLASHONLY|Rotation=240.000|XOffset=0mm|YOffset=0mm|HoleType=Round|Shape=Rectangle|*
%AMROTATEDRECTD24*
4,1,4,-0.2047,0.6955,0.7047,0.1705,0.2047,-0.6955,-0.7047,-0.1705,-0.2047,0.6955,0.0*
%
%ADD24ROTATEDRECTD24*%

G04:AMPARAMS|DCode=25|XSize=0.79mm|YSize=0.93mm|CornerRadius=0mm|HoleSize=0mm|Usage=FLASHONLY|Rotation=300.000|XOffset=0mm|YOffset=0mm|HoleType=Round|Shape=Rectangle|*
%AMROTATEDRECTD25*
4,1,4,-0.6002,0.1096,0.2052,0.5746,0.6002,-0.1096,-0.2052,-0.5746,-0.6002,0.1096,0.0*
%
%ADD25ROTATEDRECTD25*%

%ADD26R,0.9000X0.9700*%
%ADD27R,1.0000X1.1000*%
%ADD28R,0.9300X0.7900*%
G04:AMPARAMS|DCode=29|XSize=0.6mm|YSize=0.6mm|CornerRadius=0.075mm|HoleSize=0mm|Usage=FLASHONLY|Rotation=270.000|XOffset=0mm|YOffset=0mm|HoleType=Round|Shape=RoundedRectangle|*
%AMROUNDEDRECTD29*
21,1,0.6000,0.4500,0,0,270.0*
21,1,0.4500,0.6000,0,0,270.0*
1,1,0.1500,-0.2250,-0.2250*
1,1,0.1500,-0.2250,0.2250*
1,1,0.1500,0.2250,0.2250*
1,1,0.1500,0.2250,-0.2250*
%
%ADD29ROUNDEDRECTD29*%
%ADD30R,0.6000X0.6000*%
%ADD31R,1.8000X1.2000*%
%ADD52C,0.3000*%
%ADD53C,1.1430*%
%ADD54C,1.0600*%
%ADD55R,1.0600X1.0600*%
%ADD56C,1.5000*%
%ADD57P,2.1213X4X345.0*%
%ADD58C,0.6000*%
G36*
X854710Y759080D02*
Y758934D01*
X855153Y757281D01*
X856009Y755799D01*
X857219Y754589D01*
X858701Y753733D01*
X859193Y753601D01*
X859373Y752238D01*
X840558Y741376D01*
X842886Y737343D01*
X842268Y736563D01*
X841984Y736365D01*
X840436Y736780D01*
X838724D01*
X837071Y736337D01*
X835589Y735481D01*
X834379Y734271D01*
X833523Y732789D01*
X833080Y731136D01*
Y729424D01*
X833523Y727771D01*
X834379Y726289D01*
X835589Y725079D01*
X837071Y724223D01*
X838724Y723780D01*
X838725D01*
X838919Y723765D01*
X839831Y723635D01*
X846744Y711661D01*
X846940Y709171D01*
X848057Y704518D01*
X849888Y700097D01*
X852388Y696017D01*
X855474Y692403D01*
X855493Y692375D01*
X861553Y686315D01*
X861125Y685120D01*
X860874Y685095D01*
X856183Y683672D01*
X851859Y681361D01*
X851578Y681130D01*
X850834D01*
X849181Y680687D01*
X847699Y679831D01*
X846489Y678621D01*
X845795Y677420D01*
X844430Y676990D01*
X831974Y689445D01*
X831778Y689577D01*
X829392Y692483D01*
X827510Y696005D01*
X826350Y699827D01*
X825982Y703569D01*
X826028Y703801D01*
Y735280D01*
X831713Y738562D01*
X824263Y751466D01*
X810147Y743316D01*
X815832Y733469D01*
Y703801D01*
X815839Y703768D01*
X816211Y699031D01*
X817329Y694378D01*
X819160Y689957D01*
X821660Y685877D01*
X824746Y682263D01*
X824765Y682236D01*
X863598Y643402D01*
X863682Y643346D01*
X864769Y641929D01*
X865025Y641312D01*
X864745Y640828D01*
X864302Y639175D01*
Y637463D01*
X864745Y635810D01*
X865601Y634328D01*
X866811Y633118D01*
X868293Y632262D01*
X869946Y631819D01*
X871658D01*
X873311Y632262D01*
X874793Y633118D01*
X876003Y634328D01*
X876859Y635810D01*
X877302Y637463D01*
Y639175D01*
X876859Y640828D01*
X876003Y642310D01*
X875093Y643220D01*
X874563Y644966D01*
X872958Y647969D01*
X870889Y650491D01*
X870808Y650611D01*
Y650611D01*
X870808Y650611D01*
X854050Y667370D01*
X854480Y668735D01*
X855681Y669429D01*
X856891Y670639D01*
X857747Y672121D01*
X858030Y673176D01*
X860077Y674270D01*
X862859Y675114D01*
X864100Y675237D01*
X865610Y675385D01*
X865753Y675357D01*
X867463D01*
X871295Y668719D01*
X879523Y673469D01*
X887023Y660478D01*
X912137Y674978D01*
X913361Y674671D01*
X932507Y641935D01*
X876870Y544600D01*
X849934Y498674D01*
X848752Y499168D01*
X849294Y501188D01*
Y503615D01*
X848665Y505958D01*
X847452Y508060D01*
X845737Y509775D01*
X843635Y510989D01*
X841916Y511449D01*
X841545Y512833D01*
X842804Y514092D01*
X844017Y516193D01*
X844645Y518537D01*
Y520963D01*
X844017Y523307D01*
X842804Y525408D01*
X841088Y527124D01*
X838987Y528337D01*
X836643Y528965D01*
X834217D01*
X833272Y528712D01*
X833018Y529657D01*
X832269Y530955D01*
X832480Y533098D01*
X832528Y533339D01*
Y572186D01*
X832631Y572289D01*
X833487Y573771D01*
X833930Y575424D01*
Y577136D01*
X833487Y578789D01*
X832631Y580271D01*
X831421Y581481D01*
X829939Y582337D01*
X828286Y582780D01*
X826574D01*
X824921Y582337D01*
X823439Y581481D01*
X823336Y581378D01*
X817749D01*
X817560Y581340D01*
X814979Y581680D01*
X813728Y582198D01*
X812255Y584118D01*
X810982Y587191D01*
X810580Y590246D01*
X810628Y590488D01*
Y604070D01*
X816530D01*
X816710Y602875D01*
Y592220D01*
X848410D01*
Y595472D01*
X859487D01*
X860220Y594202D01*
X859635Y593189D01*
X859767Y593113D01*
X859932Y591854D01*
X852193Y584114D01*
X852174Y584086D01*
X849088Y580473D01*
X846588Y576393D01*
X844756Y571972D01*
X843639Y567319D01*
X843488Y565397D01*
X836530Y553345D01*
X851686Y544595D01*
X860186Y559318D01*
X853452Y563206D01*
X853778Y566523D01*
X854937Y570344D01*
X856820Y573866D01*
X859205Y576773D01*
X859402Y576904D01*
X869811Y587314D01*
X874791Y584439D01*
X883291Y599161D01*
X876561Y603047D01*
Y605753D01*
X876947Y606421D01*
X877390Y608074D01*
Y609786D01*
X876947Y611439D01*
X876091Y612921D01*
X874881Y614131D01*
X873399Y614987D01*
X871746Y615430D01*
X870034D01*
X868381Y614987D01*
X866899Y614131D01*
X865689Y612921D01*
X864833Y611439D01*
X864390Y609786D01*
Y608074D01*
X864797Y606554D01*
X864557Y606077D01*
X863980Y605359D01*
X860864Y605666D01*
X860853Y605668D01*
X848410D01*
Y608920D01*
X837978D01*
X837230Y609880D01*
Y626880D01*
X836520D01*
Y643600D01*
X818520D01*
Y639418D01*
X816530D01*
Y640570D01*
X794530D01*
Y628070D01*
Y620070D01*
Y612070D01*
Y606320D01*
X730530D01*
Y612070D01*
Y620070D01*
Y632570D01*
X710465D01*
X709665Y633840D01*
X710340Y635470D01*
X710800Y636070D01*
X730530D01*
Y648570D01*
X708530D01*
Y646903D01*
X706675Y646135D01*
X704921Y644789D01*
X704705Y644645D01*
X704691Y644623D01*
X702243Y641641D01*
X700413Y638216D01*
X700311Y637880D01*
X687670D01*
Y637440D01*
X671580D01*
Y633978D01*
X665490D01*
X663539Y633590D01*
X661885Y632485D01*
X660955Y631554D01*
X659830Y631778D01*
X655753D01*
Y654054D01*
X655707Y654286D01*
X656075Y658028D01*
X657234Y661850D01*
X659117Y665371D01*
X661502Y668278D01*
X661699Y668410D01*
X678835Y685546D01*
X678854Y685574D01*
X681940Y689187D01*
X684440Y693267D01*
X686272Y697688D01*
X687389Y702341D01*
X687761Y707078D01*
X687768Y707111D01*
Y731020D01*
X687790D01*
X687310Y735891D01*
X685890Y740574D01*
X685813Y740718D01*
X685432Y741470D01*
X685406Y741599D01*
X685243Y741843D01*
X685243Y741843D01*
X684301Y743253D01*
X680722Y746831D01*
X680643Y746884D01*
X678244Y748853D01*
X677928Y749112D01*
X677164Y749521D01*
X676523Y749927D01*
X675746Y750081D01*
X675349Y750161D01*
X674573Y750315D01*
X673342Y750409D01*
X671641Y750633D01*
X668910Y751764D01*
X668852Y751809D01*
X667422Y753672D01*
X666383Y756181D01*
X666052Y758692D01*
X666088Y758874D01*
Y769601D01*
X667358Y770127D01*
X668257Y769228D01*
X670263Y768070D01*
X672501Y767470D01*
X674818D01*
X676290Y767864D01*
X677560Y767470D01*
X677954Y766200D01*
X677560Y764728D01*
Y762411D01*
X678160Y760173D01*
X679318Y758167D01*
X680957Y756528D01*
X682963Y755370D01*
X685201Y754770D01*
X687518D01*
X689757Y755370D01*
X691763Y756528D01*
X693402Y758167D01*
X694560Y760173D01*
X695160Y762411D01*
Y764728D01*
X694766Y766200D01*
X695160Y767470D01*
X695160D01*
Y771172D01*
X704759D01*
Y771166D01*
X706729Y771360D01*
X707670Y770507D01*
Y766600D01*
X711733D01*
X712818Y762078D01*
X714650Y757657D01*
X717150Y753577D01*
X720236Y749964D01*
X720255Y749936D01*
X731486Y738705D01*
X731682Y738573D01*
X734068Y735667D01*
X735950Y732145D01*
X737110Y728323D01*
X737478Y724581D01*
X737432Y724349D01*
Y692320D01*
X728280D01*
Y672570D01*
X708530D01*
Y660070D01*
Y652070D01*
X730530D01*
Y660070D01*
Y670320D01*
X794530D01*
Y660070D01*
Y652070D01*
Y644070D01*
X816530D01*
Y652070D01*
Y660070D01*
Y672570D01*
X796780D01*
Y692320D01*
X788113D01*
Y697321D01*
X788701Y697909D01*
X789557Y699391D01*
X790000Y701044D01*
Y702756D01*
X789557Y704409D01*
X789303Y704849D01*
X789595Y705810D01*
X791150Y708720D01*
X800700D01*
Y725720D01*
X782700D01*
Y714233D01*
X781245Y711858D01*
X781000Y711268D01*
X779502Y710970D01*
X778901Y711571D01*
X777419Y712427D01*
X775766Y712870D01*
X774054D01*
X772401Y712427D01*
X770919Y711571D01*
X769709Y710361D01*
X768853Y708879D01*
X768651Y708125D01*
X767625Y708400D01*
X765913D01*
X764898Y708128D01*
X763628Y708951D01*
Y727175D01*
X763581Y727407D01*
X763950Y731149D01*
X765109Y734971D01*
X766992Y738493D01*
X769377Y741399D01*
X769574Y741531D01*
X775743Y747699D01*
X777357Y748562D01*
X781178Y749721D01*
X784920Y750090D01*
X785153Y750044D01*
X806263D01*
X809397Y744615D01*
X823513Y752765D01*
X818409Y761606D01*
X818777Y762510D01*
X820032Y762690D01*
X820032D01*
X837228Y772618D01*
X841172D01*
X854710Y759080D01*
D02*
G37*
G36*
X620079Y663538D02*
X619739Y662268D01*
X595620D01*
X593669Y661880D01*
X592015Y660775D01*
X588905Y657665D01*
X587800Y656011D01*
X587412Y654060D01*
Y651630D01*
X584360D01*
Y636730D01*
X600660D01*
Y639810D01*
X602666D01*
X602702Y639691D01*
X603269Y638631D01*
X603419Y638349D01*
X603460Y638144D01*
X603859Y637526D01*
X603869Y637532D01*
X604565Y636491D01*
X604557Y636483D01*
X607194Y634459D01*
X608800Y633794D01*
X609490Y632810D01*
Y619810D01*
X615280D01*
X628874Y606217D01*
Y601970D01*
X622144Y598085D01*
X630644Y583363D01*
X635624Y586238D01*
X652094Y569768D01*
Y561912D01*
X645364Y558027D01*
X648112Y553267D01*
X646507Y551950D01*
X643599Y550395D01*
X640718Y549521D01*
X639671Y550126D01*
X638018Y550569D01*
X636306D01*
X634653Y550126D01*
X633171Y549270D01*
X631961Y548060D01*
X631105Y546578D01*
X630706Y545089D01*
X630223Y544891D01*
X629392Y544827D01*
X599430Y596990D01*
X575281Y639620D01*
X596335Y676209D01*
X597562Y676538D01*
X620079Y663538D01*
D02*
G37*
G36*
X633330Y631847D02*
Y619230D01*
X649630D01*
Y620534D01*
X649757Y620632D01*
X651469D01*
X653122Y621075D01*
X654000Y621582D01*
X655199D01*
X655307Y621042D01*
X656246Y619636D01*
X657652Y618696D01*
X659310Y618367D01*
X663810D01*
X665468Y618696D01*
X666874Y619636D01*
X667813Y621042D01*
X668143Y622700D01*
Y623782D01*
X671580D01*
Y619440D01*
X688580D01*
Y619880D01*
X699827D01*
X700384Y618614D01*
X699983Y618047D01*
X699983Y618047D01*
X697835Y615248D01*
X696485Y611989D01*
X696025Y608492D01*
X696042D01*
Y594761D01*
X696049Y594728D01*
X696422Y589991D01*
X697539Y585338D01*
X699370Y580917D01*
X700307Y579387D01*
X700451Y579152D01*
X700468Y579070D01*
X700883Y578439D01*
X700966Y578312D01*
X701573Y577416D01*
X702386Y576550D01*
X704230Y574303D01*
X706112Y570781D01*
X707271Y566960D01*
X707640Y563218D01*
X707594Y562985D01*
Y551828D01*
X707620Y551696D01*
X707348Y549632D01*
X706501Y547587D01*
X706462Y547536D01*
X705192Y547967D01*
Y549688D01*
X680192D01*
Y530689D01*
X686022D01*
Y527000D01*
X682120D01*
Y510000D01*
X700120D01*
Y527000D01*
X696218D01*
Y530689D01*
X705192D01*
Y535591D01*
X709059Y536764D01*
X710432Y537497D01*
X710678Y537546D01*
X711128Y537847D01*
X712332Y538651D01*
X712378Y538721D01*
X714642Y541480D01*
X716364Y544700D01*
X717423Y548194D01*
X717773Y551745D01*
X717790Y551828D01*
Y562985D01*
X717783Y563018D01*
X717410Y567756D01*
X716293Y572408D01*
X714462Y576829D01*
X713381Y578594D01*
X713364Y578676D01*
X712952Y579294D01*
X711962Y580909D01*
X709276Y584055D01*
X707720Y586965D01*
X706561Y590787D01*
X706192Y594529D01*
X706238Y594761D01*
Y608492D01*
X706221Y608580D01*
X706457Y609768D01*
X707130Y610775D01*
X707205Y610825D01*
X707276Y610931D01*
X707391Y611020D01*
X708530Y610458D01*
Y604070D01*
X714432D01*
Y587871D01*
X714439Y587838D01*
X714811Y583101D01*
X715929Y578448D01*
X717760Y574027D01*
X720192Y570059D01*
Y554688D01*
X745192D01*
Y559090D01*
X746677D01*
X746859Y559127D01*
X749110Y558830D01*
Y550660D01*
X766110D01*
Y568660D01*
X751455D01*
X750688Y568892D01*
X746677Y569287D01*
Y569286D01*
X745192D01*
Y573688D01*
X730343D01*
X727992Y576553D01*
X726110Y580075D01*
X724950Y583897D01*
X724582Y587639D01*
X724628Y587871D01*
Y604070D01*
X728280D01*
Y584320D01*
X769387D01*
Y547739D01*
X769239Y547591D01*
X768383Y546109D01*
X767940Y544456D01*
Y542744D01*
X768383Y541091D01*
X769239Y539609D01*
X770449Y538399D01*
X771931Y537543D01*
X773584Y537100D01*
X775296D01*
X776162Y537332D01*
X777432Y536435D01*
Y529694D01*
X777469Y529509D01*
X777151Y526282D01*
X776156Y523000D01*
X775894Y522510D01*
X772709D01*
X771583Y523200D01*
X767162Y525031D01*
X762510Y526148D01*
X757772Y526521D01*
X757739Y526528D01*
X747991D01*
X747958Y526521D01*
X743221Y526148D01*
X738568Y525031D01*
X734147Y523200D01*
X732890Y522430D01*
X727414D01*
X724430Y524025D01*
X721457Y524926D01*
X721045Y525339D01*
X719563Y526194D01*
X717910Y526637D01*
X716198D01*
X714545Y526194D01*
X713063Y525339D01*
X711853Y524128D01*
X710997Y522646D01*
X710554Y520993D01*
Y519282D01*
X710997Y517629D01*
X711853Y516146D01*
X713063Y514936D01*
X714337Y514200D01*
X714311Y513453D01*
X714117Y512930D01*
X706220D01*
Y485360D01*
X663549D01*
X633899Y536981D01*
X634429Y537706D01*
X634793Y537974D01*
X636306Y537569D01*
X638018D01*
X639671Y538012D01*
X641153Y538868D01*
X641674Y539389D01*
X645490Y540305D01*
X649397Y541923D01*
X652203Y543642D01*
X653858Y543314D01*
X653864Y543305D01*
X669019Y552055D01*
X662290Y563711D01*
Y571879D01*
X661901Y573830D01*
X660796Y575484D01*
X645503Y590778D01*
X645668Y592037D01*
X645800Y592113D01*
X639070Y603769D01*
Y608328D01*
X638682Y610279D01*
X637577Y611933D01*
X622490Y627020D01*
Y632765D01*
X630490D01*
X631224Y632911D01*
X632060Y632993D01*
X633330Y631847D01*
D02*
G37*
D16*
X719530Y666320D02*
D03*
Y658320D02*
D03*
Y650320D02*
D03*
Y642320D02*
D03*
Y634320D02*
D03*
Y626320D02*
D03*
Y618320D02*
D03*
Y610320D02*
D03*
X805530D02*
D03*
Y618320D02*
D03*
Y626320D02*
D03*
Y634320D02*
D03*
Y642320D02*
D03*
Y650320D02*
D03*
Y658320D02*
D03*
Y666320D02*
D03*
D17*
X734530Y595320D02*
D03*
X742530D02*
D03*
X750530D02*
D03*
X758530D02*
D03*
X766530D02*
D03*
X774530D02*
D03*
X782530D02*
D03*
X790530D02*
D03*
Y681320D02*
D03*
X782530D02*
D03*
X774530D02*
D03*
X766530D02*
D03*
X758530D02*
D03*
X750530D02*
D03*
X742530D02*
D03*
X734530D02*
D03*
D18*
X791700Y717220D02*
D03*
X808700D02*
D03*
X691120Y518500D02*
D03*
X674120D02*
D03*
X828230Y618380D02*
D03*
X845230D02*
D03*
X844520Y635100D02*
D03*
X827520D02*
D03*
D19*
X792190Y781050D02*
D03*
X762690D02*
D03*
X761180Y498510D02*
D03*
X790680D02*
D03*
X714970Y498430D02*
D03*
X744470D02*
D03*
X745920Y781100D02*
D03*
X716420D02*
D03*
D20*
X777440Y765800D02*
D03*
X775930Y513760D02*
D03*
X729720Y513680D02*
D03*
X731170Y765850D02*
D03*
D21*
X613390Y600248D02*
D03*
X628140Y574700D02*
D03*
X895205Y675306D02*
D03*
X880455Y700854D02*
D03*
X872240Y715500D02*
D03*
X857490Y741048D02*
D03*
X651360Y534642D02*
D03*
X636610Y560190D02*
D03*
D22*
X633972Y595099D02*
D03*
X874623Y680455D02*
D03*
X851658Y720649D02*
D03*
X657192Y555041D02*
D03*
D23*
X877295Y575776D02*
D03*
X892045Y601324D02*
D03*
X628090Y703080D02*
D03*
X613340Y677532D02*
D03*
X651250Y743088D02*
D03*
X636500Y717540D02*
D03*
X868940Y561480D02*
D03*
X854190Y535932D02*
D03*
D24*
X871463Y596175D02*
D03*
X633922Y682681D02*
D03*
X657082Y722689D02*
D03*
X848358Y556331D02*
D03*
D25*
X820930Y740939D02*
D03*
X812730Y755142D02*
D03*
D26*
X840410Y600570D02*
D03*
X824710D02*
D03*
D27*
X680080Y628440D02*
D03*
Y645440D02*
D03*
X696170Y628880D02*
D03*
Y645880D02*
D03*
X757610Y559660D02*
D03*
Y542660D02*
D03*
D28*
X641480Y626680D02*
D03*
Y643080D02*
D03*
X592510Y627780D02*
D03*
Y644180D02*
D03*
D29*
X661560Y624950D02*
D03*
Y646950D02*
D03*
D30*
X625490Y646310D02*
D03*
X606490D02*
D03*
X615990Y626310D02*
D03*
D31*
X692692Y540188D02*
D03*
X732692D02*
D03*
Y564188D02*
D03*
X692692D02*
D03*
D52*
X766440Y761560D02*
G03*
X766638Y761566I-0J3000D01*
G01*
X635605Y555205D02*
G03*
X635598Y555234I-2915J-708D01*
G01*
X647354Y536660D02*
G03*
X646329Y537715I-2598J-1500D01*
G01*
X634917Y567010D02*
G03*
X632339Y570501I-12889J-6820D01*
G01*
X634272Y550488D02*
G03*
X635911Y554040I-1246J2729D01*
G01*
X644813Y538640D02*
G03*
X641437Y538475I-1567J-2558D01*
G01*
X634272Y550488D02*
G03*
X641437Y538475I2890J-6419D01*
G01*
X635605Y555205D02*
G03*
X635911Y554040I24712J5872D01*
G01*
X637162Y544069D02*
G03*
X652624Y550474I0J21867D01*
G01*
X649642Y688957D02*
G03*
X657082Y706917I-17960J17960D01*
G01*
X790455Y715975D02*
G03*
X783281Y701681I17960J-17960D01*
G01*
D02*
G03*
X783015Y698014I25134J-3667D01*
G01*
X628140Y574977D02*
G03*
X620700Y592937I-25400J0D01*
G01*
X871463Y607546D02*
G03*
X870890Y608930I-1957J0D01*
G01*
X871463Y596175D02*
G03*
X860853Y600570I-10610J-10610D01*
G01*
X820930Y703801D02*
G03*
X828370Y685840I25400J0D01*
G01*
X870802Y638319D02*
G03*
X867203Y647007I-12286J0D01*
G01*
X820170Y775107D02*
G03*
X812730Y757146I17960J-17960D01*
G01*
X825638Y634320D02*
G03*
X827520Y635100I0J2662D01*
G01*
X797630Y642321D02*
G03*
X794662Y643550I-2968J-2968D01*
G01*
X727313Y516087D02*
G03*
X716780Y520450I-10533J-10533D01*
G01*
X747991Y521430D02*
G03*
X730031Y513990I0J-25400D01*
G01*
X789464Y498430D02*
G03*
X790530Y498872I0J1508D01*
G01*
X808317Y498510D02*
G03*
X826278Y505950I0J25400D01*
G01*
X807785Y535919D02*
G03*
X815225Y517958I25400J0D01*
G01*
X853868Y535611D02*
G03*
X846429Y517650I17960J-17960D01*
G01*
X810731Y577932D02*
G03*
X817749Y576280I7019J14088D01*
G01*
X805530Y590488D02*
G03*
X810731Y577932I17757J0D01*
G01*
X824432Y526100D02*
G03*
X827430Y533339I-7239J7239D01*
G01*
X665513Y747955D02*
G03*
X674573Y745217I9060J13617D01*
G01*
X661198Y756348D02*
G03*
X665513Y747955I15233J2526D01*
G01*
X660990Y758874D02*
G03*
X661198Y756348I15441J0D01*
G01*
X677117Y743227D02*
G03*
X674573Y745217I-9408J-9408D01*
G01*
X673660Y776270D02*
G03*
X670208Y777700I-3452J-3452D01*
G01*
X662770Y776620D02*
G03*
X660990Y772320I4303J-4300D01*
G01*
X662772Y776622D02*
G03*
X662770Y776620I4302J-4302D01*
G01*
X682670Y731020D02*
G03*
X680696Y739648I-19845J0D01*
G01*
X675230Y689150D02*
G03*
X682670Y707111I-17960J17960D01*
G01*
X863527Y680330D02*
G03*
X851692Y674632I2226J-19763D01*
G01*
X865753Y680455D02*
G03*
X863527Y680330I0J-19888D01*
G01*
X703600Y614430D02*
G03*
X701140Y608492I5938J-5938D01*
G01*
X712992Y618320D02*
G03*
X703600Y614430I0J-13282D01*
G01*
X701140Y594761D02*
G03*
X705178Y581021I25400J0D01*
G01*
X735660Y647160D02*
G03*
X728031Y650320I-7629J-7629D01*
G01*
X730492Y634320D02*
G03*
X733920Y635740I0J4848D01*
G01*
D02*
G03*
X735660Y639941I-4201J4201D01*
G01*
X711401Y642320D02*
G03*
X708310Y641040I0J-4371D01*
G01*
D02*
G03*
X704000Y630635I10405J-10405D01*
G01*
X757610Y559660D02*
G03*
X746677Y564188I-10933J-10933D01*
G01*
X658094Y672014D02*
G03*
X650655Y654054I17960J-17960D01*
G01*
X671612Y735648D02*
G03*
X653651Y743088I-17960J-17960D01*
G01*
X704759Y776270D02*
G03*
X716420Y781100I0J16491D01*
G01*
X809450Y715409D02*
G03*
X808700Y717220I-2561J0D01*
G01*
X749520Y710670D02*
G03*
X749510Y710180I12570J-490D01*
G01*
X692692Y540188D02*
G03*
X691120Y536394I3795J-3795D01*
G01*
X738659Y542660D02*
G03*
X732692Y540188I0J-8439D01*
G01*
X872240Y715777D02*
G03*
X864800Y733737I-25400J0D01*
G01*
X895205Y682014D02*
G03*
X887766Y699975I-25400J0D01*
G01*
X851658Y713941D02*
G03*
X859098Y695980I25400J0D01*
G01*
X708654Y576726D02*
G03*
X705252Y580946I-21363J-13740D01*
G01*
X712692Y562985D02*
G03*
X708654Y576726I-25400J0D01*
G01*
X700605Y540188D02*
G03*
X708727Y542256I0J16986D01*
G01*
D02*
G03*
X712692Y551828I-9572J9572D01*
G01*
X719530Y587871D02*
G03*
X726970Y569911I25400J0D01*
G01*
X775930Y513760D02*
G03*
X782530Y529694I-15934J15934D01*
G01*
X775700Y513990D02*
G03*
X757739Y521430I-17960J-17960D01*
G01*
X855797Y580509D02*
G03*
X848358Y562549I17960J-17960D01*
G01*
X884605Y566348D02*
G03*
X892045Y584309I-17960J17960D01*
G01*
X828170Y618320D02*
G03*
X824710Y609882I8558J-8438D01*
G01*
X828230Y618380D02*
G03*
X828171Y618320I8498J-8498D01*
G01*
X785153Y755142D02*
G03*
X772731Y751897I0J-25400D01*
G01*
X633922Y682681D02*
G03*
X640216Y680074I6295J6295D01*
G01*
X643940Y735777D02*
G03*
X636500Y717817I17960J-17960D01*
G01*
X620650Y684843D02*
G03*
X628090Y702803I-17960J17960D01*
G01*
X632368Y713408D02*
G03*
X628090Y703080I10328J-10328D01*
G01*
X765969Y745135D02*
G03*
X758530Y727175I17960J-17960D01*
G01*
X750527Y735850D02*
G03*
X750530Y735968I-2998J120D01*
G01*
X742530Y724349D02*
G03*
X735090Y742310I-25400J0D01*
G01*
X716420Y771501D02*
G03*
X723859Y753541I25400J0D01*
G01*
X750530Y735969D02*
G03*
X743090Y753930I-25400J0D01*
G01*
X606490Y646196D02*
G03*
X608170Y640095I11916J0D01*
G01*
X630490Y637863D02*
G03*
X641480Y643080I-1830J18037D01*
G01*
X608170Y640095D02*
G03*
X613560Y637863I5390J5390D01*
G01*
X736010Y781100D02*
X762690D01*
X732046Y765164D02*
X762836D01*
X728090Y782520D02*
X734589D01*
X716420Y781100D02*
X726670D01*
X728090Y782520D01*
X731170Y766040D02*
X732046Y765164D01*
X762690Y781100D02*
X792140D01*
X731170Y765850D02*
X731690Y766370D01*
Y775520D01*
X734589Y782520D02*
X736010Y781100D01*
X762836Y765164D02*
X766440Y761560D01*
X766638Y761566D02*
X773940Y762050D01*
X777440Y765800D01*
X635580Y555265D02*
X635598Y555234D01*
X635598Y555234D01*
X647354Y536660D02*
X651360Y534642D01*
X647354Y536660D02*
X647354D01*
X634917Y561606D02*
X635082Y560030D01*
X635580Y555265D01*
X634917Y561606D02*
Y567010D01*
X644813Y538640D02*
X646329Y537715D01*
X652624Y550474D02*
X657192Y555041D01*
X774530Y681320D02*
X774720Y681510D01*
Y706180D02*
X774910Y706370D01*
X774720Y681510D02*
Y706180D01*
X766530Y681320D02*
X766649Y681440D01*
Y701780D02*
X766769Y701900D01*
X766649Y681440D02*
Y701780D01*
X642193Y681507D02*
X649642Y688957D01*
X640216Y680074D02*
X650356D01*
X783015Y681805D02*
Y698014D01*
X650655Y626680D02*
Y654054D01*
X641706Y626906D02*
X650387D01*
X650613Y627132D01*
X641480Y626680D02*
X641706Y626906D01*
X628140Y574700D02*
Y574977D01*
X613390Y600248D02*
X620700Y592937D01*
X628140Y574700D02*
X632339Y570501D01*
X855797Y580509D02*
X871463Y596175D01*
Y607546D01*
X828370Y685840D02*
X867203Y647007D01*
X840410Y600570D02*
X860853D01*
X843283Y777717D02*
X861210Y759790D01*
X824058Y777717D02*
X843283D01*
X820170Y775107D02*
X823850Y778787D01*
X805530Y634320D02*
X825638D01*
X735660Y643550D02*
X794662D01*
X729720Y513680D02*
X730031Y513990D01*
X727313Y516087D02*
X729720Y513680D01*
X826278Y505950D02*
X829080Y508751D01*
X744470Y498430D02*
X789464D01*
X790530Y498872D02*
X791331D01*
X790530D02*
Y595320D01*
X790680Y498510D02*
X808317D01*
X815225Y517958D02*
X818082Y515102D01*
X807785Y535919D02*
Y558660D01*
X854190Y535932D02*
X884605Y566348D01*
X853868Y535611D02*
X854190Y535932D01*
X846429Y513400D02*
Y517650D01*
X817749Y576280D02*
X827430D01*
X805530Y590488D02*
Y610320D01*
X827430Y533339D02*
Y576280D01*
X660990Y758874D02*
Y772320D01*
X677117Y743227D02*
X680696Y739648D01*
X663850Y777700D02*
X670208D01*
X662772Y776622D02*
X663850Y777700D01*
X662770Y776620D02*
X662772Y776622D01*
X682670Y707111D02*
Y731020D01*
X658094Y672014D02*
X675230Y689150D01*
X865753Y680455D02*
X874623D01*
X859098Y695980D02*
X874623Y680455D01*
X701140Y594761D02*
Y608492D01*
X735660Y643550D02*
Y647160D01*
Y639941D02*
Y643550D01*
X719530Y650320D02*
X728031D01*
X719530Y634320D02*
X730492D01*
X711401Y642320D02*
X719530D01*
X704000Y626320D02*
X719530D01*
X698730D02*
X704000D01*
Y630635D01*
X726970Y569911D02*
X732692Y564188D01*
X746677D01*
X671612Y735648D02*
X672690Y734570D01*
X650655Y626680D02*
X659830D01*
X731170Y765850D02*
X743090Y753930D01*
X716420Y771501D02*
Y781100D01*
X686360Y776270D02*
X704759D01*
X809450Y703590D02*
Y715409D01*
X783500Y701900D02*
X784849D01*
X790455Y715975D02*
X791700Y717220D01*
X820930Y703801D02*
Y740939D01*
X749520Y710670D02*
X750527Y735850D01*
X749510Y687320D02*
Y710180D01*
X758530Y681320D02*
Y727175D01*
X749510Y687320D02*
X750530Y681320D01*
X782530D02*
X783015Y681805D01*
X633972Y595099D02*
X657192Y571879D01*
X633972Y595099D02*
X633972D01*
X657192Y555041D02*
Y571879D01*
X692692Y540188D02*
X700605D01*
X691120Y518500D02*
Y536394D01*
X738659Y542660D02*
X757610D01*
X844782Y730444D02*
X855386Y741048D01*
X839580Y730280D02*
X839744Y730444D01*
X844782D01*
X855386Y741048D02*
X857490D01*
X864800Y733737D01*
X872240Y715500D02*
Y715777D01*
Y715500D02*
X887766Y699975D01*
X895205Y675306D02*
Y682014D01*
X851658Y713941D02*
Y720649D01*
X774485Y595275D02*
X774530Y595320D01*
X774440Y543600D02*
X774485Y543645D01*
Y595275D01*
X705178Y581021D02*
X705252Y580946D01*
X705178Y581021D02*
X705178Y581021D01*
X712692Y551828D02*
Y562985D01*
X712992Y618320D02*
X719530D01*
Y587871D02*
Y610320D01*
X714970Y498430D02*
X744470D01*
X775700Y513990D02*
X775930Y513760D01*
X747991Y521430D02*
X757739D01*
X782530Y529694D02*
Y595320D01*
X848358Y556331D02*
Y562549D01*
X892045Y584309D02*
Y601324D01*
X828170Y618320D02*
X828230Y618380D01*
X828170Y618320D02*
X828171D01*
X805530D02*
X828170D01*
X824710Y600570D02*
Y609882D01*
X792140Y781100D02*
X792190Y781050D01*
X765969Y745135D02*
X772731Y751897D01*
X650356Y680074D02*
X650930Y679500D01*
X643940Y735777D02*
X651250Y743088D01*
X653651D01*
X657082Y706917D02*
Y722689D01*
X636500Y717540D02*
Y717817D01*
X632368Y713408D02*
X636500Y717540D01*
X628090Y702803D02*
Y703080D01*
X613340Y677532D02*
X620650Y684843D01*
X785153Y755142D02*
X812730D01*
Y757146D01*
X750530Y735968D02*
X750530Y735969D01*
X742530Y681320D02*
Y724349D01*
X723859Y753541D02*
X735090Y742310D01*
X613560Y637863D02*
X630490D01*
X606490Y646196D02*
Y646310D01*
X613790Y646670D02*
X614150Y647030D01*
X615990Y626310D02*
X633972Y608328D01*
Y595099D02*
Y608328D01*
X606490Y646310D02*
X606850Y646670D01*
X613790D01*
X625490Y646310D02*
Y652500D01*
X620820Y657170D02*
X625490Y652500D01*
X595620Y657170D02*
X620820D01*
X592510Y654060D02*
X595620Y657170D01*
X592510Y644180D02*
Y654060D01*
X625275Y646525D02*
X625490Y646310D01*
X665490Y628880D02*
X696170D01*
X659830Y626680D02*
X661560Y624950D01*
X665490Y628880D01*
X696170D02*
X698730Y626320D01*
D53*
X818082Y515102D02*
D03*
X824432Y526100D02*
D03*
X829080Y508751D02*
D03*
X835430Y519750D02*
D03*
X840079Y502402D02*
D03*
X846429Y513400D02*
D03*
D54*
X673660Y763570D02*
D03*
Y776270D02*
D03*
X686360Y763570D02*
D03*
D55*
Y776270D02*
D03*
D56*
X836758Y755720D02*
D03*
D57*
X824058Y777717D02*
D03*
D58*
X920001Y650000D02*
D03*
X925001Y640000D02*
D03*
X920001Y630000D02*
D03*
X910001Y670000D02*
D03*
X915001Y660000D02*
D03*
X910001Y650000D02*
D03*
X915001Y640000D02*
D03*
X910001Y630000D02*
D03*
X915001Y620000D02*
D03*
X910001Y610000D02*
D03*
X905001Y660000D02*
D03*
X900001Y650000D02*
D03*
X905001Y640000D02*
D03*
X900001Y630000D02*
D03*
X905001Y620000D02*
D03*
X900001Y610000D02*
D03*
X895001Y660000D02*
D03*
X890001Y650000D02*
D03*
X895001Y640000D02*
D03*
X890001Y630000D02*
D03*
X895001Y620000D02*
D03*
X890001Y590000D02*
D03*
X860001Y550000D02*
D03*
X855000Y520000D02*
D03*
X825000Y760000D02*
D03*
X820000Y670000D02*
D03*
X825000Y660000D02*
D03*
X820000Y650000D02*
D03*
X810000Y730000D02*
D03*
Y690000D02*
D03*
X815000Y680000D02*
D03*
X800000Y730000D02*
D03*
Y690000D02*
D03*
X805000Y680000D02*
D03*
X795000Y700000D02*
D03*
X725000Y740000D02*
D03*
X720000Y730000D02*
D03*
X725000Y720000D02*
D03*
Y700000D02*
D03*
X710000Y750000D02*
D03*
X715000Y740000D02*
D03*
X710000Y730000D02*
D03*
X715000Y720000D02*
D03*
Y700000D02*
D03*
X710000Y590000D02*
D03*
X700000Y750000D02*
D03*
X705000Y740000D02*
D03*
X700000Y730000D02*
D03*
X705000Y720000D02*
D03*
Y700000D02*
D03*
X700000Y670000D02*
D03*
X705000Y660000D02*
D03*
X690000Y750000D02*
D03*
X695000Y740000D02*
D03*
Y720000D02*
D03*
Y700000D02*
D03*
X690000Y670000D02*
D03*
X695000Y660000D02*
D03*
X690000Y610000D02*
D03*
Y590000D02*
D03*
X695000Y580000D02*
D03*
X680000Y670000D02*
D03*
X685000Y660000D02*
D03*
X680000Y610000D02*
D03*
X685000Y600000D02*
D03*
X680000Y590000D02*
D03*
X685000Y580000D02*
D03*
X670000Y670000D02*
D03*
X675000Y660000D02*
D03*
X670000Y650000D02*
D03*
Y610000D02*
D03*
X675000Y600000D02*
D03*
X670000Y590000D02*
D03*
X675000Y580000D02*
D03*
X670000Y570000D02*
D03*
X675000Y560000D02*
D03*
Y540000D02*
D03*
X665000Y660000D02*
D03*
X660000Y610000D02*
D03*
X665000Y600000D02*
D03*
X660000Y590000D02*
D03*
X665000Y580000D02*
D03*
X650000Y610000D02*
D03*
X655000Y600000D02*
D03*
X645000D02*
D03*
X610000Y610000D02*
D03*
X731690Y775520D02*
D03*
X774910Y706370D02*
D03*
X766769Y701900D02*
D03*
X740550Y643890D02*
D03*
X650613Y627132D02*
D03*
X637162Y544069D02*
D03*
X870890Y608930D02*
D03*
X870802Y638319D02*
D03*
X861210Y759790D02*
D03*
X717054Y520137D02*
D03*
X807632Y558199D02*
D03*
X851690Y674630D02*
D03*
X672690Y734570D02*
D03*
X809450Y703590D02*
D03*
X827430Y576280D02*
D03*
X783500Y701900D02*
D03*
X839580Y730280D02*
D03*
X774440Y543600D02*
D03*
X650930Y679500D02*
D03*
X614150Y647030D02*
D03*
M02*
