G04*
G04 #@! TF.GenerationSoftware,Altium Limited,Altium Designer,21.9.1 (22)*
G04*
G04 Layer_Color=8388736*
%FSLAX44Y44*%
%MOMM*%
G71*
G04*
G04 #@! TF.SameCoordinates,043B7ADD-777D-4B4F-A2BF-0A1D89707C51*
G04*
G04*
G04 #@! TF.FilePolarity,Negative*
G04*
G01*
G75*
%ADD11C,0.0000*%
%ADD32R,1.7032X0.7532*%
%ADD33R,0.7532X1.7032*%
%ADD34R,1.3032X1.2032*%
%ADD35R,1.2532X2.4032*%
%ADD36R,1.2032X1.2532*%
G04:AMPARAMS|DCode=37|XSize=1.2532mm|YSize=2.4032mm|CornerRadius=0mm|HoleSize=0mm|Usage=FLASHONLY|Rotation=120.000|XOffset=0mm|YOffset=0mm|HoleType=Round|Shape=Rectangle|*
%AMROTATEDRECTD37*
4,1,4,1.3539,0.0582,-0.7273,-1.1435,-1.3539,-0.0582,0.7273,1.1435,1.3539,0.0582,0.0*
%
%ADD37ROTATEDRECTD37*%

G04:AMPARAMS|DCode=38|XSize=1.2032mm|YSize=1.2532mm|CornerRadius=0mm|HoleSize=0mm|Usage=FLASHONLY|Rotation=120.000|XOffset=0mm|YOffset=0mm|HoleType=Round|Shape=Rectangle|*
%AMROTATEDRECTD38*
4,1,4,0.8435,-0.2077,-0.2419,-0.8343,-0.8435,0.2077,0.2419,0.8343,0.8435,-0.2077,0.0*
%
%ADD38ROTATEDRECTD38*%

G04:AMPARAMS|DCode=39|XSize=1.2532mm|YSize=2.4032mm|CornerRadius=0mm|HoleSize=0mm|Usage=FLASHONLY|Rotation=240.000|XOffset=0mm|YOffset=0mm|HoleType=Round|Shape=Rectangle|*
%AMROTATEDRECTD39*
4,1,4,-0.7273,1.1435,1.3539,-0.0582,0.7273,-1.1435,-1.3539,0.0582,-0.7273,1.1435,0.0*
%
%ADD39ROTATEDRECTD39*%

G04:AMPARAMS|DCode=40|XSize=1.2032mm|YSize=1.2532mm|CornerRadius=0mm|HoleSize=0mm|Usage=FLASHONLY|Rotation=240.000|XOffset=0mm|YOffset=0mm|HoleType=Round|Shape=Rectangle|*
%AMROTATEDRECTD40*
4,1,4,-0.2419,0.8343,0.8435,0.2077,0.2419,-0.8343,-0.8435,-0.2077,-0.2419,0.8343,0.0*
%
%ADD40ROTATEDRECTD40*%

G04:AMPARAMS|DCode=41|XSize=0.9932mm|YSize=1.1332mm|CornerRadius=0mm|HoleSize=0mm|Usage=FLASHONLY|Rotation=300.000|XOffset=0mm|YOffset=0mm|HoleType=Round|Shape=Rectangle|*
%AMROTATEDRECTD41*
4,1,4,-0.7390,0.1468,0.2424,0.7134,0.7390,-0.1468,-0.2424,-0.7134,-0.7390,0.1468,0.0*
%
%ADD41ROTATEDRECTD41*%

%ADD42R,1.1032X1.1732*%
%ADD43R,1.2032X1.3032*%
%ADD44R,1.1332X0.9932*%
G04:AMPARAMS|DCode=45|XSize=0.8032mm|YSize=0.8032mm|CornerRadius=0.1766mm|HoleSize=0mm|Usage=FLASHONLY|Rotation=270.000|XOffset=0mm|YOffset=0mm|HoleType=Round|Shape=RoundedRectangle|*
%AMROUNDEDRECTD45*
21,1,0.8032,0.4500,0,0,270.0*
21,1,0.4500,0.8032,0,0,270.0*
1,1,0.3532,-0.2250,-0.2250*
1,1,0.3532,-0.2250,0.2250*
1,1,0.3532,0.2250,0.2250*
1,1,0.3532,0.2250,-0.2250*
%
%ADD45ROUNDEDRECTD45*%
%ADD46R,0.8032X0.8032*%
%ADD47R,2.0032X1.4032*%
%ADD48C,1.2632*%
%ADD49R,1.2632X1.2632*%
%ADD50C,1.7032*%
%ADD51P,2.4087X4X345.0*%
D11*
X824302Y515102D02*
G03*
X824302Y515102I-6220J0D01*
G01*
X830651Y526100D02*
G03*
X830651Y526100I-6220J0D01*
G01*
X835300Y508751D02*
G03*
X835300Y508751I-6220J0D01*
G01*
X841650Y519750D02*
G03*
X841650Y519750I-6220J0D01*
G01*
X846299Y502402D02*
G03*
X846299Y502402I-6220J0D01*
G01*
X852648Y513400D02*
G03*
X852648Y513400I-6220J0D01*
G01*
D32*
X719530Y666320D02*
D03*
Y658320D02*
D03*
Y650320D02*
D03*
Y642320D02*
D03*
Y634320D02*
D03*
Y626320D02*
D03*
Y618320D02*
D03*
Y610320D02*
D03*
X805530D02*
D03*
Y618320D02*
D03*
Y626320D02*
D03*
Y634320D02*
D03*
Y642320D02*
D03*
Y650320D02*
D03*
Y658320D02*
D03*
Y666320D02*
D03*
D33*
X734530Y595320D02*
D03*
X742530D02*
D03*
X750530D02*
D03*
X758530D02*
D03*
X766530D02*
D03*
X774530D02*
D03*
X782530D02*
D03*
X790530D02*
D03*
Y681320D02*
D03*
X782530D02*
D03*
X774530D02*
D03*
X766530D02*
D03*
X758530D02*
D03*
X750530D02*
D03*
X742530D02*
D03*
X734530D02*
D03*
D34*
X791700Y717220D02*
D03*
X808700D02*
D03*
X691120Y518500D02*
D03*
X674120D02*
D03*
X828230Y618380D02*
D03*
X845230D02*
D03*
X844520Y635100D02*
D03*
X827520D02*
D03*
D35*
X792190Y781050D02*
D03*
X762690D02*
D03*
X761180Y498510D02*
D03*
X790680D02*
D03*
X714970Y498430D02*
D03*
X744470D02*
D03*
X745920Y781100D02*
D03*
X716420D02*
D03*
D36*
X777440Y765800D02*
D03*
X775930Y513760D02*
D03*
X729720Y513680D02*
D03*
X731170Y765850D02*
D03*
D37*
X613390Y600248D02*
D03*
X628140Y574700D02*
D03*
X895205Y675306D02*
D03*
X880455Y700854D02*
D03*
X872240Y715500D02*
D03*
X857490Y741048D02*
D03*
X651360Y534642D02*
D03*
X636610Y560190D02*
D03*
D38*
X633972Y595099D02*
D03*
X874623Y680455D02*
D03*
X851658Y720649D02*
D03*
X657192Y555041D02*
D03*
D39*
X877295Y575776D02*
D03*
X892045Y601324D02*
D03*
X628090Y703080D02*
D03*
X613340Y677532D02*
D03*
X651250Y743088D02*
D03*
X636500Y717540D02*
D03*
X868940Y561480D02*
D03*
X854190Y535932D02*
D03*
D40*
X871463Y596175D02*
D03*
X633922Y682681D02*
D03*
X657082Y722689D02*
D03*
X848358Y556331D02*
D03*
D41*
X820930Y740939D02*
D03*
X812730Y755142D02*
D03*
D42*
X840410Y600570D02*
D03*
X824710D02*
D03*
D43*
X680080Y628440D02*
D03*
Y645440D02*
D03*
X696170Y628880D02*
D03*
Y645880D02*
D03*
X757610Y559660D02*
D03*
Y542660D02*
D03*
D44*
X641480Y626680D02*
D03*
Y643080D02*
D03*
X592510Y627780D02*
D03*
Y644180D02*
D03*
D45*
X661560Y624950D02*
D03*
Y646950D02*
D03*
D46*
X625490Y646310D02*
D03*
X606490D02*
D03*
X615990Y626310D02*
D03*
D47*
X692692Y540188D02*
D03*
X732692D02*
D03*
Y564188D02*
D03*
X692692D02*
D03*
D48*
X673660Y763570D02*
D03*
Y776270D02*
D03*
X686360Y763570D02*
D03*
D49*
Y776270D02*
D03*
D50*
X836758Y755720D02*
D03*
D51*
X824058Y777717D02*
D03*
M02*
