G04*
G04 #@! TF.GenerationSoftware,Altium Limited,Altium Designer,21.9.1 (22)*
G04*
G04 Layer_Color=128*
%FSLAX44Y44*%
%MOMM*%
G71*
G04*
G04 #@! TF.SameCoordinates,043B7ADD-777D-4B4F-A2BF-0A1D89707C51*
G04*
G04*
G04 #@! TF.FilePolarity,Positive*
G04*
G01*
G75*
%ADD71C,0.0508*%
D71*
X814531Y515102D02*
X821631D01*
X818082Y511552D02*
Y518652D01*
X820882Y526100D02*
X827981D01*
X824432Y522550D02*
Y529650D01*
X825530Y508751D02*
X832630D01*
X829080Y505201D02*
Y512301D01*
X831880Y519750D02*
X838980D01*
X835430Y516200D02*
Y523300D01*
X836528Y502402D02*
X843628D01*
X840079Y498852D02*
Y505951D01*
X842878Y513400D02*
X849978D01*
X846429Y509850D02*
Y516950D01*
X670110Y763570D02*
X677210D01*
X673660Y760020D02*
Y767120D01*
X670110Y776270D02*
X677210D01*
X673660Y772720D02*
Y779820D01*
X682810Y763570D02*
X689910D01*
X686360Y760020D02*
Y767120D01*
X682810Y776270D02*
X689910D01*
X686360Y772720D02*
Y779820D01*
X832258Y755720D02*
X841258D01*
X836758Y751219D02*
Y760219D01*
X819558Y777717D02*
X828558D01*
X824058Y773216D02*
Y782216D01*
X918501Y650000D02*
X921500D01*
X920001Y648500D02*
Y651500D01*
X923501Y640000D02*
X926500D01*
X925001Y638500D02*
Y641500D01*
X918501Y630000D02*
X921500D01*
X920001Y628500D02*
Y631500D01*
X908501Y670000D02*
X911500D01*
X910001Y668500D02*
Y671500D01*
X913501Y660000D02*
X916500D01*
X915001Y658500D02*
Y661500D01*
X908501Y650000D02*
X911500D01*
X910001Y648500D02*
Y651500D01*
X913501Y640000D02*
X916500D01*
X915001Y638500D02*
Y641500D01*
X908501Y630000D02*
X911500D01*
X910001Y628500D02*
Y631500D01*
X913501Y620000D02*
X916500D01*
X915001Y618500D02*
Y621500D01*
X908501Y610000D02*
X911500D01*
X910001Y608500D02*
Y611500D01*
X903501Y660000D02*
X906500D01*
X905001Y658500D02*
Y661500D01*
X898501Y650000D02*
X901500D01*
X900001Y648500D02*
Y651500D01*
X903501Y640000D02*
X906500D01*
X905001Y638500D02*
Y641500D01*
X898501Y630000D02*
X901500D01*
X900001Y628500D02*
Y631500D01*
X903501Y620000D02*
X906500D01*
X905001Y618500D02*
Y621500D01*
X898501Y610000D02*
X901500D01*
X900001Y608500D02*
Y611500D01*
X893501Y660000D02*
X896500D01*
X895001Y658500D02*
Y661500D01*
X888501Y650000D02*
X891500D01*
X890001Y648500D02*
Y651500D01*
X893501Y640000D02*
X896500D01*
X895001Y638500D02*
Y641500D01*
X888501Y630000D02*
X891500D01*
X890001Y628500D02*
Y631500D01*
X893501Y620000D02*
X896500D01*
X895001Y618500D02*
Y621500D01*
X888501Y590000D02*
X891500D01*
X890001Y588500D02*
Y591500D01*
X858501Y550000D02*
X861500D01*
X860001Y548500D02*
Y551500D01*
X853501Y520000D02*
X856500D01*
X855000Y518500D02*
Y521500D01*
X823500Y760000D02*
X826500D01*
X825000Y758500D02*
Y761500D01*
X818500Y670000D02*
X821500D01*
X820000Y668500D02*
Y671500D01*
X823500Y660000D02*
X826500D01*
X825000Y658500D02*
Y661500D01*
X818500Y650000D02*
X821500D01*
X820000Y648500D02*
Y651500D01*
X808500Y730000D02*
X811500D01*
X810000Y728500D02*
Y731500D01*
X808500Y690000D02*
X811500D01*
X810000Y688500D02*
Y691500D01*
X813500Y680000D02*
X816500D01*
X815000Y678500D02*
Y681500D01*
X798500Y730000D02*
X801500D01*
X800000Y728500D02*
Y731500D01*
X798500Y690000D02*
X801500D01*
X800000Y688500D02*
Y691500D01*
X803500Y680000D02*
X806500D01*
X805000Y678500D02*
Y681500D01*
X793500Y700000D02*
X796500D01*
X795000Y698500D02*
Y701500D01*
X723500Y740000D02*
X726500D01*
X725000Y738500D02*
Y741500D01*
X718500Y730000D02*
X721500D01*
X720000Y728500D02*
Y731500D01*
X723500Y720000D02*
X726500D01*
X725000Y718500D02*
Y721500D01*
X723500Y700000D02*
X726500D01*
X725000Y698500D02*
Y701500D01*
X708500Y750000D02*
X711500D01*
X710000Y748500D02*
Y751500D01*
X713500Y740000D02*
X716500D01*
X715000Y738500D02*
Y741500D01*
X708500Y730000D02*
X711500D01*
X710000Y728500D02*
Y731500D01*
X713500Y720000D02*
X716500D01*
X715000Y718500D02*
Y721500D01*
X713500Y700000D02*
X716500D01*
X715000Y698500D02*
Y701500D01*
X708500Y590000D02*
X711500D01*
X710000Y588500D02*
Y591500D01*
X698500Y750000D02*
X701500D01*
X700000Y748500D02*
Y751500D01*
X703500Y740000D02*
X706500D01*
X705000Y738500D02*
Y741500D01*
X698500Y730000D02*
X701500D01*
X700000Y728500D02*
Y731500D01*
X703500Y720000D02*
X706500D01*
X705000Y718500D02*
Y721500D01*
X703500Y700000D02*
X706500D01*
X705000Y698500D02*
Y701500D01*
X698500Y670000D02*
X701500D01*
X700000Y668500D02*
Y671500D01*
X703500Y660000D02*
X706500D01*
X705000Y658500D02*
Y661500D01*
X688500Y750000D02*
X691500D01*
X690000Y748500D02*
Y751500D01*
X693500Y740000D02*
X696500D01*
X695000Y738500D02*
Y741500D01*
X693500Y720000D02*
X696500D01*
X695000Y718500D02*
Y721500D01*
X693500Y700000D02*
X696500D01*
X695000Y698500D02*
Y701500D01*
X688500Y670000D02*
X691500D01*
X690000Y668500D02*
Y671500D01*
X693500Y660000D02*
X696500D01*
X695000Y658500D02*
Y661500D01*
X688500Y610000D02*
X691500D01*
X690000Y608500D02*
Y611500D01*
X688500Y590000D02*
X691500D01*
X690000Y588500D02*
Y591500D01*
X693500Y580000D02*
X696500D01*
X695000Y578500D02*
Y581500D01*
X678500Y670000D02*
X681500D01*
X680000Y668500D02*
Y671500D01*
X683500Y660000D02*
X686500D01*
X685000Y658500D02*
Y661500D01*
X678500Y610000D02*
X681500D01*
X680000Y608500D02*
Y611500D01*
X683500Y600000D02*
X686500D01*
X685000Y598500D02*
Y601500D01*
X678500Y590000D02*
X681500D01*
X680000Y588500D02*
Y591500D01*
X683500Y580000D02*
X686500D01*
X685000Y578500D02*
Y581500D01*
X668500Y670000D02*
X671500D01*
X670000Y668500D02*
Y671500D01*
X673500Y660000D02*
X676500D01*
X675000Y658500D02*
Y661500D01*
X668500Y650000D02*
X671500D01*
X670000Y648500D02*
Y651500D01*
X668500Y610000D02*
X671500D01*
X670000Y608500D02*
Y611500D01*
X673500Y600000D02*
X676500D01*
X675000Y598500D02*
Y601500D01*
X668500Y590000D02*
X671500D01*
X670000Y588500D02*
Y591500D01*
X673500Y580000D02*
X676500D01*
X675000Y578500D02*
Y581500D01*
X668500Y570000D02*
X671500D01*
X670000Y568500D02*
Y571500D01*
X673500Y560000D02*
X676500D01*
X675000Y558500D02*
Y561500D01*
X673500Y540000D02*
X676500D01*
X675000Y538500D02*
Y541500D01*
X663500Y660000D02*
X666500D01*
X665000Y658500D02*
Y661500D01*
X658500Y610000D02*
X661500D01*
X660000Y608500D02*
Y611500D01*
X663500Y600000D02*
X666500D01*
X665000Y598500D02*
Y601500D01*
X658500Y590000D02*
X661500D01*
X660000Y588500D02*
Y591500D01*
X663500Y580000D02*
X666500D01*
X665000Y578500D02*
Y581500D01*
X648500Y610000D02*
X651500D01*
X650000Y608500D02*
Y611500D01*
X653500Y600000D02*
X656500D01*
X655000Y598500D02*
Y601500D01*
X643500Y600000D02*
X646500D01*
X645000Y598500D02*
Y601500D01*
X608500Y610000D02*
X611500D01*
X610000Y608500D02*
Y611500D01*
X730190Y775520D02*
X733190D01*
X731690Y774020D02*
Y777020D01*
X773410Y706370D02*
X776410D01*
X774910Y704870D02*
Y707870D01*
X765269Y701900D02*
X768269D01*
X766769Y700400D02*
Y703400D01*
X739050Y643890D02*
X742050D01*
X740550Y642390D02*
Y645390D01*
X649113Y627132D02*
X652113D01*
X650613Y625632D02*
Y628632D01*
X635662Y544069D02*
X638662D01*
X637162Y542569D02*
Y545569D01*
X869390Y608930D02*
X872390D01*
X870890Y607430D02*
Y610430D01*
X869302Y638319D02*
X872302D01*
X870802Y636819D02*
Y639819D01*
X859710Y759790D02*
X862710D01*
X861210Y758290D02*
Y761290D01*
X715554Y520137D02*
X718554D01*
X717054Y518637D02*
Y521637D01*
X806132Y558199D02*
X809132D01*
X807632Y556699D02*
Y559699D01*
X850190Y674630D02*
X853190D01*
X851690Y673130D02*
Y676130D01*
X671190Y734570D02*
X674190D01*
X672690Y733070D02*
Y736070D01*
X807950Y703590D02*
X810950D01*
X809450Y702090D02*
Y705090D01*
X825930Y576280D02*
X828930D01*
X827430Y574780D02*
Y577780D01*
X782000Y701900D02*
X785000D01*
X783500Y700400D02*
Y703400D01*
X838080Y730280D02*
X841080D01*
X839580Y728780D02*
Y731780D01*
X772940Y543600D02*
X775940D01*
X774440Y542100D02*
Y545100D01*
X649430Y679500D02*
X652430D01*
X650930Y678000D02*
Y681000D01*
X612650Y647030D02*
X615650D01*
X614150Y645530D02*
Y648530D01*
M02*
