G04*
G04 #@! TF.GenerationSoftware,Altium Limited,Altium Designer,21.9.1 (22)*
G04*
G04 Layer_Color=32896*
%FSLAX44Y44*%
%MOMM*%
G71*
G04*
G04 #@! TF.SameCoordinates,043B7ADD-777D-4B4F-A2BF-0A1D89707C51*
G04*
G04*
G04 #@! TF.FilePolarity,Positive*
G04*
G01*
G75*
%ADD12C,0.2000*%
%ADD14C,0.1270*%
D12*
X624342Y571290D02*
X627841Y565229D01*
X630871Y566979D01*
X631298Y568572D01*
X630132Y570592D01*
X628539Y571019D01*
X625508Y569270D01*
X627528Y570436D02*
X628382Y573622D01*
X637941Y571061D02*
X633901Y568728D01*
X632152Y571758D01*
X634755Y571915D01*
X635765Y572498D01*
X636192Y574091D01*
X635026Y576111D01*
X633433Y576538D01*
X631412Y575372D01*
X630985Y573779D01*
X645938Y535881D02*
X649437Y529821D01*
X652467Y531570D01*
X652894Y533163D01*
X651728Y535183D01*
X650134Y535610D01*
X647104Y533861D01*
X649124Y535027D02*
X649978Y538214D01*
X654914Y534330D02*
X656507Y533903D01*
X658527Y535069D01*
X658954Y536662D01*
X658371Y537672D01*
X656778Y538099D01*
X655768Y537516D01*
X656778Y538099D01*
X657205Y539692D01*
X656621Y540702D01*
X655028Y541129D01*
X653008Y539963D01*
X652581Y538370D01*
X602356Y660963D02*
X603523Y662129D01*
X605855D01*
X607021Y660963D01*
Y656297D01*
X605855Y655131D01*
X603523D01*
X602356Y656297D01*
X595359Y662129D02*
X597691Y660963D01*
X600024Y658630D01*
Y656297D01*
X598857Y655131D01*
X596525D01*
X595359Y656297D01*
Y657464D01*
X596525Y658630D01*
X600024D01*
X860431Y634644D02*
X867429D01*
Y631145D01*
X866263Y629979D01*
X865096D01*
X863930Y631145D01*
Y634644D01*
Y631145D01*
X862764Y629979D01*
X861597D01*
X860431Y631145D01*
Y634644D01*
Y627646D02*
Y622981D01*
Y625314D01*
X867429D01*
Y620649D02*
Y618316D01*
Y619482D01*
X860431D01*
X861597Y620649D01*
X816968Y739152D02*
X816541Y737559D01*
X814521Y736392D01*
X812927Y736819D01*
X810595Y740859D01*
X811022Y742452D01*
X813042Y743619D01*
X814635Y743192D01*
X816655Y744358D02*
X817082Y745951D01*
X819102Y747118D01*
X820695Y746691D01*
X823028Y742651D01*
X822601Y741057D01*
X820581Y739891D01*
X818988Y740318D01*
X818405Y741328D01*
X818831Y742921D01*
X821862Y744671D01*
X633634Y656197D02*
X632467Y655031D01*
X630135D01*
X628969Y656197D01*
Y660863D01*
X630135Y662029D01*
X632467D01*
X633634Y660863D01*
X635966Y655031D02*
X640631D01*
Y656197D01*
X635966Y660863D01*
Y662029D01*
D14*
X787910Y519350D02*
X834710D01*
Y564850D01*
Y684850D02*
Y730350D01*
X787910D02*
X834710D01*
X679710Y519350D02*
X730510D01*
X679710D02*
Y569850D01*
Y679850D02*
Y730350D01*
X730510D01*
X617073Y588193D02*
X618173Y586287D01*
X624867Y592693D02*
X625967Y590787D01*
X637323Y552753D02*
X638423Y550847D01*
X645117Y557253D02*
X646217Y555347D01*
X638150Y633380D02*
Y636380D01*
X629150Y633380D02*
Y636380D01*
M02*
