G04*
G04 #@! TF.GenerationSoftware,Altium Limited,Altium Designer,21.9.1 (22)*
G04*
G04 Layer_Physical_Order=2*
G04 Layer_Color=16711680*
%FSLAX44Y44*%
%MOMM*%
G71*
G04*
G04 #@! TF.SameCoordinates,043B7ADD-777D-4B4F-A2BF-0A1D89707C51*
G04*
G04*
G04 #@! TF.FilePolarity,Positive*
G04*
G01*
G75*
G04:AMPARAMS|DCode=25|XSize=0.79mm|YSize=0.93mm|CornerRadius=0mm|HoleSize=0mm|Usage=FLASHONLY|Rotation=300.000|XOffset=0mm|YOffset=0mm|HoleType=Round|Shape=Rectangle|*
%AMROTATEDRECTD25*
4,1,4,-0.6002,0.1096,0.2052,0.5746,0.6002,-0.1096,-0.2052,-0.5746,-0.6002,0.1096,0.0*
%
%ADD25ROTATEDRECTD25*%

%ADD27R,1.0000X1.1000*%
%ADD52C,0.3000*%
%ADD53C,1.1430*%
%ADD54C,1.0600*%
%ADD55R,1.0600X1.0600*%
%ADD56C,1.5000*%
%ADD57P,2.1213X4X345.0*%
%ADD58C,0.6000*%
%ADD59C,10.0000*%
%ADD60R,5.1000X2.5000*%
G04:AMPARAMS|DCode=61|XSize=1.1mm|YSize=1mm|CornerRadius=0mm|HoleSize=0mm|Usage=FLASHONLY|Rotation=120.000|XOffset=0mm|YOffset=0mm|HoleType=Round|Shape=Rectangle|*
%AMROTATEDRECTD61*
4,1,4,0.7080,-0.2263,-0.1580,-0.7263,-0.7080,0.2263,0.1580,0.7263,0.7080,-0.2263,0.0*
%
%ADD61ROTATEDRECTD61*%

%ADD62R,5.1371X1.0070*%
%ADD63R,5.1630X0.9840*%
G36*
X682397Y796172D02*
X679168Y793522D01*
X679175Y793515D01*
X673251Y787591D01*
X673133Y787414D01*
X671278Y785153D01*
X671021Y784673D01*
X670263Y784470D01*
X668257Y783312D01*
X666618Y781673D01*
X665460Y779667D01*
X664860Y777429D01*
Y775111D01*
X665460Y772873D01*
X666618Y770867D01*
X668257Y769228D01*
X670263Y768070D01*
X672501Y767470D01*
X674818D01*
X676290Y767864D01*
X677560Y767470D01*
X677954Y766200D01*
X677560Y764728D01*
Y762411D01*
X678160Y760173D01*
X679318Y758167D01*
X680957Y756528D01*
X682963Y755370D01*
X685201Y754770D01*
X687518D01*
X689757Y755370D01*
X691763Y756528D01*
X693402Y758167D01*
X693785Y758830D01*
X694059Y758851D01*
X698712Y759968D01*
X703133Y761800D01*
X707213Y764300D01*
X710826Y767386D01*
X710854Y767405D01*
X710956Y767558D01*
X712958Y769093D01*
X715457Y770129D01*
X717959Y770458D01*
X718139Y770422D01*
X727596D01*
X727699Y770319D01*
X729181Y769463D01*
X730834Y769020D01*
X732546D01*
X734199Y769463D01*
X735681Y770319D01*
X736891Y771529D01*
X737747Y773011D01*
X738190Y774664D01*
Y776376D01*
X737747Y778029D01*
X736891Y779511D01*
X735681Y780721D01*
X734199Y781577D01*
X732546Y782020D01*
X730834D01*
X729181Y781577D01*
X727699Y780721D01*
X727596Y780618D01*
X718139D01*
Y780619D01*
X714140Y780225D01*
X710294Y779058D01*
X706750Y777164D01*
X703644Y774615D01*
X703644Y774615D01*
X702724Y773770D01*
X700607Y772032D01*
X697085Y770150D01*
X696180Y769875D01*
X695160Y770632D01*
Y785070D01*
X686809D01*
X686513Y785784D01*
X686408Y786340D01*
X686515Y786500D01*
X688876Y788312D01*
X691840Y789539D01*
X694790Y789928D01*
X695020Y789882D01*
X820589D01*
X820930Y788612D01*
X809032Y781743D01*
X811008Y778319D01*
X810307Y776994D01*
X810012Y776972D01*
X807071Y782065D01*
X792349Y773565D01*
X801349Y757977D01*
X816071Y766477D01*
Y766477D01*
X816185Y766813D01*
X817573Y766949D01*
X820032Y762690D01*
X839084Y773690D01*
X833771Y782894D01*
X834787Y783673D01*
X840853Y777607D01*
X841050Y777476D01*
X843436Y774569D01*
X845318Y771047D01*
X846477Y767225D01*
X846846Y763484D01*
X846800Y763251D01*
Y755090D01*
X846882Y754676D01*
X846869Y754254D01*
X847074Y753710D01*
X847188Y753139D01*
X847422Y752788D01*
X847572Y752393D01*
X849224Y749743D01*
X854933Y737357D01*
X853892Y736631D01*
X848406Y742116D01*
X848406Y742116D01*
X848406D01*
X847257Y742884D01*
X846752Y743222D01*
X846126Y743348D01*
X846126Y743348D01*
X843054Y744085D01*
X838647Y744432D01*
X838568Y744448D01*
X788210D01*
Y755350D01*
X730210D01*
Y728877D01*
X730051Y728080D01*
Y718240D01*
X730323Y716874D01*
X730541Y716548D01*
X729862Y715278D01*
X695531D01*
X695299Y715232D01*
X691557Y715600D01*
X687735Y716760D01*
X684213Y718642D01*
X681307Y721027D01*
X681175Y721224D01*
X678015Y724385D01*
X677970Y724415D01*
X677777Y724880D01*
X677788Y724932D01*
Y730476D01*
X677891Y730579D01*
X678747Y732061D01*
X679190Y733714D01*
Y735426D01*
X678747Y737079D01*
X677891Y738561D01*
X676681Y739771D01*
X675199Y740627D01*
X673546Y741070D01*
X671834D01*
X670181Y740627D01*
X668699Y739771D01*
X667489Y738561D01*
X666633Y737079D01*
X666190Y735426D01*
Y733714D01*
X666633Y732061D01*
X667489Y730579D01*
X667592Y730476D01*
Y724932D01*
X667604Y724871D01*
X667970Y722094D01*
X669065Y719449D01*
X670770Y717227D01*
X670805Y717175D01*
X673966Y714015D01*
X673994Y713996D01*
X677607Y710910D01*
X681687Y708410D01*
X686108Y706579D01*
X690761Y705461D01*
X695498Y705089D01*
X695531Y705082D01*
X759750D01*
X760552Y703812D01*
X760269Y702756D01*
Y701044D01*
X760712Y699391D01*
X761568Y697909D01*
X761671Y697806D01*
Y695937D01*
X761598Y695888D01*
X759991Y695569D01*
X759842Y695598D01*
X672451D01*
X672418Y695592D01*
X667681Y695219D01*
X663028Y694102D01*
X658607Y692271D01*
X654527Y689770D01*
X650914Y686684D01*
X650886Y686666D01*
X650220Y686000D01*
X650074D01*
X648421Y685557D01*
X646939Y684701D01*
X645729Y683491D01*
X644873Y682009D01*
X644430Y680356D01*
Y678644D01*
X644873Y676991D01*
X645729Y675509D01*
X646939Y674299D01*
X647160Y674171D01*
X646878Y672867D01*
X645401Y672722D01*
X645169Y672768D01*
X612911D01*
X612878Y672761D01*
X608141Y672389D01*
X603488Y671272D01*
X599067Y669440D01*
X594987Y666940D01*
X591374Y663854D01*
X591346Y663835D01*
X591343Y663832D01*
X591340Y663829D01*
X591306Y663779D01*
X590304Y662606D01*
X589263Y663343D01*
X667011Y797442D01*
X682254D01*
X682397Y796172D01*
D02*
G37*
G36*
X833733Y733152D02*
X833523Y732789D01*
X833080Y731136D01*
Y730560D01*
X832020Y728973D01*
X831632Y727023D01*
Y582826D01*
X830911Y582260D01*
X830210Y582180D01*
X829939Y582337D01*
X828286Y582780D01*
X826574D01*
X824921Y582337D01*
X823439Y581481D01*
X822229Y580271D01*
X821373Y578789D01*
X820930Y577136D01*
Y575424D01*
X821373Y573771D01*
X822229Y572289D01*
X823439Y571079D01*
X824921Y570223D01*
X826574Y569780D01*
X828103D01*
X828397Y569362D01*
X828611Y568554D01*
X826867Y567122D01*
X823345Y565240D01*
X819523Y564080D01*
X815781Y563712D01*
X815549Y563758D01*
X811003D01*
X810141Y564256D01*
X808488Y564699D01*
X806776D01*
X805123Y564256D01*
X804261Y563758D01*
X800021D01*
X799988Y563751D01*
X795251Y563379D01*
X790598Y562262D01*
X786177Y560430D01*
X782097Y557930D01*
X778484Y554844D01*
X778456Y554825D01*
X773730Y550100D01*
X773584D01*
X771931Y549657D01*
X770449Y548801D01*
X769239Y547591D01*
X768383Y546109D01*
X767940Y544456D01*
Y542744D01*
X768383Y541091D01*
X769239Y539609D01*
X770449Y538399D01*
X771931Y537543D01*
X773584Y537100D01*
X775296D01*
X776949Y537543D01*
X778431Y538399D01*
X779641Y539609D01*
X780497Y541091D01*
X780940Y542744D01*
Y542890D01*
X785665Y547616D01*
X785797Y547812D01*
X788704Y550198D01*
X792225Y552080D01*
X796047Y553240D01*
X799789Y553608D01*
X800021Y553562D01*
X803076D01*
X803641Y552998D01*
X805123Y552142D01*
X806776Y551699D01*
X808488D01*
X810141Y552142D01*
X811623Y552998D01*
X812188Y553562D01*
X815549D01*
X815582Y553569D01*
X820319Y553941D01*
X824972Y555059D01*
X829393Y556890D01*
X832030Y558506D01*
X832822Y557501D01*
X799642Y524322D01*
X799510Y524124D01*
X796065Y521182D01*
X792003Y518693D01*
X790749Y518173D01*
X789659Y517739D01*
X788534Y518091D01*
X788210Y518237D01*
Y519500D01*
X788587Y520064D01*
X788859Y521430D01*
Y531500D01*
X788587Y532866D01*
X787813Y534023D01*
X786656Y534797D01*
X785290Y535069D01*
X733920D01*
X732554Y534797D01*
X732322Y534642D01*
X729282Y534881D01*
X729249Y534888D01*
X666590D01*
X666492Y534869D01*
X665236Y535118D01*
X664171Y535830D01*
X664115Y535913D01*
X656514Y543514D01*
X656653Y544572D01*
X656653Y544572D01*
X649203Y557476D01*
X637981Y550996D01*
X637704Y551102D01*
X637591Y552503D01*
X648453Y558774D01*
X641003Y571678D01*
X636787Y569244D01*
X635721Y570310D01*
X634892Y571236D01*
X633552Y572869D01*
X631969Y575831D01*
X631550Y577210D01*
X636403Y580012D01*
X628953Y592915D01*
X619550Y587486D01*
X619057D01*
X618849Y587445D01*
X616832Y587846D01*
X615122Y588989D01*
X615005Y589165D01*
X610032Y594138D01*
X609811Y594286D01*
X605502Y599107D01*
X601624Y604572D01*
X598383Y610437D01*
X595818Y616628D01*
X593964Y623067D01*
X592841Y629673D01*
X592567Y634557D01*
X593439Y635480D01*
X608840D01*
Y641801D01*
X610110Y641878D01*
X610159Y641829D01*
X611641Y640973D01*
X613294Y640530D01*
X615006D01*
X616659Y640973D01*
X618141Y641829D01*
X619351Y643039D01*
X620207Y644521D01*
X620650Y646174D01*
Y647886D01*
X620207Y649539D01*
X619351Y651021D01*
X618141Y652231D01*
X616659Y653087D01*
X615006Y653530D01*
X613294D01*
X611641Y653087D01*
X610159Y652231D01*
X610110Y652182D01*
X608840Y652259D01*
Y653480D01*
X597533D01*
X596932Y654750D01*
X598367Y656498D01*
X598549Y656620D01*
X598552Y656623D01*
X598555Y656626D01*
X598687Y656823D01*
X601593Y659208D01*
X605115Y661090D01*
X608937Y662250D01*
X612679Y662618D01*
X612911Y662572D01*
X645169D01*
X645202Y662579D01*
X649939Y662951D01*
X654592Y664069D01*
X657736Y665371D01*
X658417Y665653D01*
X658556Y665680D01*
X658895Y665851D01*
X658874Y665892D01*
X660210Y666786D01*
X660210D01*
X660210Y666786D01*
X664641Y671216D01*
X664772Y671413D01*
X667679Y673798D01*
X669865Y674967D01*
X671200Y675680D01*
X675022Y676840D01*
X678764Y677208D01*
X678996Y677162D01*
X761434D01*
X761467Y677169D01*
X766205Y677541D01*
X770857Y678659D01*
X775278Y680490D01*
X775793Y680805D01*
X776143Y681019D01*
X776226Y681035D01*
X776807Y681423D01*
X777880Y682140D01*
X777880D01*
X777880Y682140D01*
X782204Y686464D01*
X782204Y686465D01*
X782209Y686460D01*
X784925Y689769D01*
X786943Y693544D01*
X787630Y695808D01*
X787725Y695950D01*
X787824Y696448D01*
X788078Y697286D01*
X788701Y697909D01*
X789557Y699391D01*
X790000Y701044D01*
Y702756D01*
X789557Y704409D01*
X788701Y705891D01*
X787491Y707101D01*
X786009Y707957D01*
X784356Y708400D01*
X782644D01*
X781199Y708013D01*
X780967Y708879D01*
X780111Y710361D01*
X778901Y711571D01*
X777419Y712427D01*
X775766Y712870D01*
X774617D01*
X774018Y713401D01*
X774500Y714671D01*
X785250D01*
X786616Y714943D01*
X787773Y715717D01*
X788547Y716874D01*
X788819Y718240D01*
Y728080D01*
X788547Y729446D01*
X788210Y729950D01*
Y734252D01*
X833098D01*
X833733Y733152D01*
D02*
G37*
G36*
X932057Y640232D02*
X842414Y484966D01*
X826808D01*
X826555Y486236D01*
X830667Y487938D01*
X834834Y490492D01*
X838198Y493365D01*
X838865Y493186D01*
X841292D01*
X843635Y493814D01*
X845737Y495028D01*
X847452Y496743D01*
X848665Y498845D01*
X849294Y501188D01*
Y503615D01*
X848665Y505958D01*
X847452Y508060D01*
X845737Y509775D01*
X843635Y510989D01*
X841916Y511449D01*
X841545Y512833D01*
X842804Y514092D01*
X844017Y516193D01*
X844645Y518537D01*
Y520963D01*
X844017Y523307D01*
X842804Y525408D01*
X841088Y527124D01*
X840528Y527447D01*
Y531879D01*
X840482Y532111D01*
X840850Y535853D01*
X842010Y539675D01*
X843892Y543196D01*
X846277Y546103D01*
X846474Y546235D01*
X874427Y574188D01*
X874446Y574216D01*
X877532Y577829D01*
X880032Y581909D01*
X881863Y586330D01*
X882980Y590983D01*
X883353Y595720D01*
X883360Y595753D01*
Y720997D01*
X883325Y721175D01*
X883347Y721355D01*
X883132Y722145D01*
X882972Y722948D01*
X882871Y723099D01*
X882823Y723274D01*
X880614Y727700D01*
X872879Y745620D01*
X874020Y746177D01*
X932057Y640232D01*
D02*
G37*
%LPC*%
G36*
X642150Y635380D02*
X625150D01*
Y617380D01*
X642150D01*
Y622034D01*
X646518D01*
X646622Y621931D01*
X648104Y621075D01*
X649757Y620632D01*
X651469D01*
X653122Y621075D01*
X654604Y621931D01*
X655814Y623141D01*
X656670Y624623D01*
X657113Y626276D01*
Y627988D01*
X656670Y629641D01*
X655814Y631123D01*
X654604Y632333D01*
X653122Y633189D01*
X651469Y633632D01*
X649757D01*
X648104Y633189D01*
X646622Y632333D01*
X646518Y632230D01*
X642150D01*
Y635380D01*
D02*
G37*
%LPD*%
D25*
X617420Y596591D02*
D03*
X625620Y582389D02*
D03*
X637670Y561151D02*
D03*
X645870Y546949D02*
D03*
D27*
X600340Y644480D02*
D03*
Y627480D02*
D03*
X633650Y626380D02*
D03*
Y643380D02*
D03*
D52*
X689289Y763570D02*
G03*
X707250Y771010I0J25400D01*
G01*
X718139Y775520D02*
G03*
X707250Y771010I0J-15400D01*
G01*
X672690Y724932D02*
G03*
X674410Y720780I5872J0D01*
G01*
X677570Y717619D02*
G03*
X695531Y710180I17960J17960D01*
G01*
X774908Y706372D02*
G03*
X765712Y710180I-9196J-9200D01*
G01*
X774910Y706370D02*
G03*
X774908Y706372I-9198J-9198D01*
G01*
X766649Y693320D02*
G03*
X766769Y693609I-289J289D01*
G01*
X759842Y690500D02*
G03*
X766649Y693320I0J9627D01*
G01*
X672451Y690500D02*
G03*
X654491Y683061I0J-25400D01*
G01*
X645169Y667670D02*
G03*
X656606Y670390I0J25400D01*
G01*
X667560Y679540D02*
G03*
X661036Y674820I11437J-22680D01*
G01*
X678996Y682260D02*
G03*
X667560Y679540I0J-25400D01*
G01*
X761434Y682260D02*
G03*
X774275Y685745I0J25400D01*
G01*
X783015Y697901D02*
G03*
X783500Y701900I-16246J3999D01*
G01*
X778600Y690069D02*
G03*
X783015Y697901I-11831J11831D01*
G01*
X816527Y489640D02*
G03*
X834947Y497270I0J26049D01*
G01*
X717054Y499380D02*
G03*
X721088Y489640I13775J-0D01*
G01*
X644299Y546949D02*
G03*
X637180Y544000I0J-10067D01*
G01*
X870823Y577792D02*
G03*
X878262Y595753I-17960J17960D01*
G01*
X860929Y652091D02*
G03*
X861505Y655327I-8800J3236D01*
G01*
X858759Y648697D02*
G03*
X860929Y652091I-6630J6630D01*
G01*
X851898Y763251D02*
G03*
X844458Y781212I-25400J0D01*
G01*
X836810Y788860D02*
G03*
X822035Y794980I-14775J-14775D01*
G01*
X861505Y711287D02*
G03*
X854065Y729247I-25400J0D01*
G01*
X766649Y644309D02*
G03*
X759210Y626349I17960J-17960D01*
G01*
X814881Y670000D02*
G03*
X796921Y662561I0J-25400D01*
G01*
X747209Y522351D02*
G03*
X729249Y529790I-17960J-17960D01*
G01*
X660510Y532308D02*
G03*
X666590Y529790I6080J6080D01*
G01*
X842869Y549840D02*
G03*
X835430Y531879I17960J-17960D01*
G01*
X844801Y738512D02*
G03*
X838568Y739350I-6233J-22754D01*
G01*
X830675Y576280D02*
G03*
X834900Y578030I0J5975D01*
G01*
X804563Y770021D02*
G03*
X822524Y777461I0J25400D01*
G01*
X851690Y674630D02*
G03*
X844355Y656922I17708J-17708D01*
G01*
X695020Y794980D02*
G03*
X682780Y789910I0J-17310D01*
G01*
X790710Y512627D02*
G03*
X803247Y520717I-12491J33117D01*
G01*
X789665Y512438D02*
G03*
X790710Y512627I-3J3000D01*
G01*
X832949Y755298D02*
G03*
X836550Y756790I0J5092D01*
G01*
X676856Y783986D02*
G03*
X673660Y776270I7716J-7716D01*
G01*
X594945Y660225D02*
G03*
X587760Y643008I17365J-17354D01*
G01*
X587746Y642736D02*
G03*
X606427Y590533I64473J-6372D01*
G01*
X587746Y642736D02*
G03*
X587760Y643008I-2986J289D01*
G01*
X625620Y582389D02*
G03*
X632116Y566705I22180J0D01*
G01*
X611400Y585560D02*
G03*
X619057Y582389I7656J7656D01*
G01*
X807930Y685590D02*
G03*
X809450Y689260I-3670J3670D01*
G01*
X800021Y558660D02*
G03*
X782060Y551221I0J-25400D01*
G01*
X815549Y558660D02*
G03*
X833510Y566100I0J25400D01*
G01*
X836916Y566825D02*
G03*
X844355Y584786I-17960J17960D01*
G01*
X834900Y578030D02*
G03*
X836730Y582448I-4418J4418D01*
G01*
X612911Y667670D02*
G03*
X594950Y660230I0J-25400D01*
G01*
D02*
G03*
X594945Y660225I17359J-17359D01*
G01*
X718139Y775520D02*
X731690D01*
X686360Y763570D02*
X689289D01*
X674410Y720780D02*
X677570Y717619D01*
X695531Y710180D02*
X765712D01*
X766769Y693609D02*
Y701900D01*
X672451Y690500D02*
X759842D01*
X650930Y679500D02*
X654491Y683061D01*
X656606Y670390D02*
X661036Y674820D01*
X656606Y670390D02*
X656606Y670390D01*
X678996Y682260D02*
X761434D01*
X774275Y685745D02*
X778600Y690069D01*
X774275Y685745D02*
X774275Y685745D01*
X721088Y489640D02*
X816527D01*
X633650Y626380D02*
X634402Y627132D01*
X650613D01*
X633650Y625880D02*
Y626380D01*
X870846Y608974D02*
X870890Y608930D01*
X870802Y638319D02*
X870846Y638275D01*
Y608974D02*
Y638275D01*
X878262Y595753D02*
Y720997D01*
X875990Y725549D02*
X878262Y720997D01*
X870802Y638319D02*
Y715110D01*
X853719Y752168D02*
X870802Y715110D01*
X858759Y576229D02*
Y648697D01*
X836810Y788860D02*
X844458Y781212D01*
X851898Y755090D02*
Y763251D01*
Y755090D02*
X853719Y752168D01*
X695020Y794980D02*
X822035D01*
X861210Y759790D02*
X875990Y725549D01*
X861505Y655327D02*
Y711287D01*
X852023Y569493D02*
X858759Y576229D01*
X814881Y670000D02*
X820000D01*
X759210Y624850D02*
Y626349D01*
X766649Y644309D02*
X807930Y685590D01*
X759210Y624850D02*
X796921Y662561D01*
X644299Y546949D02*
X645870D01*
X660510Y532308D01*
X747209Y522351D02*
X759210Y510350D01*
X666590Y529790D02*
X729249D01*
X835430Y519750D02*
Y531879D01*
X842869Y549840D02*
X870823Y577792D01*
X834947Y497270D02*
X840079Y502402D01*
X717054Y499380D02*
Y520137D01*
X800021Y558660D02*
X815549D01*
X844801Y738512D02*
X854065Y729247D01*
X844801Y738512D02*
X844801Y738512D01*
X827430Y576280D02*
X830675D01*
X822524Y777461D02*
X823850Y778787D01*
X836730Y582448D02*
Y727023D01*
X839580Y729873D01*
X844355Y584786D02*
Y656922D01*
X783210Y512438D02*
X789665D01*
X759210Y510350D02*
X783210Y512438D01*
X825801Y776902D02*
X826289Y776674D01*
X824058Y777717D02*
X825801Y776902D01*
X812710Y755298D02*
X832949D01*
X804210Y770021D02*
X804563D01*
X676856Y783986D02*
X682780Y789910D01*
X606427Y590533D02*
X606427Y590533D01*
X611400Y585560D01*
X619057Y582389D02*
X625620D01*
X632116Y566705D02*
X637670Y561151D01*
X672690Y724932D02*
Y734570D01*
X803247Y520717D02*
X852023Y569493D01*
X759210Y739350D02*
X838568D01*
X809450Y689260D02*
Y703590D01*
X774440Y543600D02*
X782060Y551221D01*
X833510Y566100D02*
X841110Y573700D01*
X839580Y729873D02*
Y730280D01*
X612911Y667670D02*
X645169D01*
X617420Y596591D02*
X617770Y596941D01*
X600340Y644480D02*
X602890Y647030D01*
X614150D01*
D53*
X818082Y515102D02*
D03*
X824432Y526100D02*
D03*
X829080Y508751D02*
D03*
X835430Y519750D02*
D03*
X840079Y502402D02*
D03*
X846429Y513400D02*
D03*
D54*
X673660Y763570D02*
D03*
Y776270D02*
D03*
X686360Y763570D02*
D03*
D55*
Y776270D02*
D03*
D56*
X836758Y755720D02*
D03*
D57*
X824058Y777717D02*
D03*
D58*
X920001Y650000D02*
D03*
X925001Y640000D02*
D03*
X920001Y630000D02*
D03*
X910001Y670000D02*
D03*
X915001Y660000D02*
D03*
X910001Y650000D02*
D03*
X915001Y640000D02*
D03*
X910001Y630000D02*
D03*
X915001Y620000D02*
D03*
X910001Y610000D02*
D03*
X905001Y660000D02*
D03*
X900001Y650000D02*
D03*
X905001Y640000D02*
D03*
X900001Y630000D02*
D03*
X905001Y620000D02*
D03*
X900001Y610000D02*
D03*
X895001Y660000D02*
D03*
X890001Y650000D02*
D03*
X895001Y640000D02*
D03*
X890001Y630000D02*
D03*
X895001Y620000D02*
D03*
X890001Y590000D02*
D03*
X860001Y550000D02*
D03*
X855000Y520000D02*
D03*
X825000Y760000D02*
D03*
X820000Y670000D02*
D03*
X825000Y660000D02*
D03*
X820000Y650000D02*
D03*
X810000Y730000D02*
D03*
Y690000D02*
D03*
X815000Y680000D02*
D03*
X800000Y730000D02*
D03*
Y690000D02*
D03*
X805000Y680000D02*
D03*
X795000Y700000D02*
D03*
X725000Y740000D02*
D03*
X720000Y730000D02*
D03*
X725000Y720000D02*
D03*
Y700000D02*
D03*
X710000Y750000D02*
D03*
X715000Y740000D02*
D03*
X710000Y730000D02*
D03*
X715000Y720000D02*
D03*
Y700000D02*
D03*
X710000Y590000D02*
D03*
X700000Y750000D02*
D03*
X705000Y740000D02*
D03*
X700000Y730000D02*
D03*
X705000Y720000D02*
D03*
Y700000D02*
D03*
X700000Y670000D02*
D03*
X705000Y660000D02*
D03*
X690000Y750000D02*
D03*
X695000Y740000D02*
D03*
Y720000D02*
D03*
Y700000D02*
D03*
X690000Y670000D02*
D03*
X695000Y660000D02*
D03*
X690000Y610000D02*
D03*
Y590000D02*
D03*
X695000Y580000D02*
D03*
X680000Y670000D02*
D03*
X685000Y660000D02*
D03*
X680000Y610000D02*
D03*
X685000Y600000D02*
D03*
X680000Y590000D02*
D03*
X685000Y580000D02*
D03*
X670000Y670000D02*
D03*
X675000Y660000D02*
D03*
X670000Y650000D02*
D03*
Y610000D02*
D03*
X675000Y600000D02*
D03*
X670000Y590000D02*
D03*
X675000Y580000D02*
D03*
X670000Y570000D02*
D03*
X675000Y560000D02*
D03*
Y540000D02*
D03*
X665000Y660000D02*
D03*
X660000Y610000D02*
D03*
X665000Y600000D02*
D03*
X660000Y590000D02*
D03*
X665000Y580000D02*
D03*
X650000Y610000D02*
D03*
X655000Y600000D02*
D03*
X645000D02*
D03*
X610000Y610000D02*
D03*
X731690Y775520D02*
D03*
X774910Y706370D02*
D03*
X766769Y701900D02*
D03*
X740550Y643890D02*
D03*
X650613Y627132D02*
D03*
X637162Y544069D02*
D03*
X870890Y608930D02*
D03*
X870802Y638319D02*
D03*
X861210Y759790D02*
D03*
X717054Y520137D02*
D03*
X807632Y558199D02*
D03*
X851690Y674630D02*
D03*
X672690Y734570D02*
D03*
X809450Y703590D02*
D03*
X827430Y576280D02*
D03*
X783500Y701900D02*
D03*
X839580Y730280D02*
D03*
X774440Y543600D02*
D03*
X650930Y679500D02*
D03*
X614150Y647030D02*
D03*
D59*
X759210Y624850D02*
D03*
D60*
Y510350D02*
D03*
Y739350D02*
D03*
D61*
X812710Y755298D02*
D03*
X804210Y770021D02*
D03*
D62*
X759605Y526465D02*
D03*
D63*
X759435Y723160D02*
D03*
M02*
